<svg width="20" height="25" viewBox="0 0 20 25" fill="none" xmlns="http://www.w3.org/2000/svg">
<path d="M10.2235 0.818359C7.73051 0.8213 5.34049 1.81293 3.57769 3.57573C1.81489 5.33852 0.823264 7.72854 0.820323 10.2215C0.817337 12.2588 1.4828 14.2407 2.71463 15.8634C2.71463 15.8634 2.97108 16.2011 3.01297 16.2498L10.2235 24.7537L17.4374 16.2455C17.475 16.2002 17.7323 15.8634 17.7323 15.8634L17.7332 15.8608C18.9644 14.2389 19.6296 12.2578 19.6266 10.2215C19.6237 7.72854 18.6321 5.33852 16.8693 3.57573C15.1065 1.81293 12.7164 0.8213 10.2235 0.818359ZM10.2235 13.6408C9.5472 13.6408 8.8861 13.4403 8.3238 13.0646C7.76149 12.6889 7.32323 12.1548 7.06443 11.53C6.80563 10.9052 6.73791 10.2177 6.86985 9.55443C7.00178 8.89115 7.32744 8.28188 7.80564 7.80368C8.28385 7.32548 8.89311 6.99982 9.5564 6.86789C10.2197 6.73595 10.9072 6.80366 11.532 7.06246C12.1568 7.32127 12.6908 7.75953 13.0665 8.32184C13.4423 8.88414 13.6428 9.54523 13.6428 10.2215C13.6417 11.128 13.2811 11.9971 12.6401 12.6381C11.9991 13.2791 11.13 13.6397 10.2235 13.6408Z" fill="#010F32"/>
</svg>
