<svg width="145" height="133" viewBox="0 0 145 133" fill="none" xmlns="http://www.w3.org/2000/svg">
<path d="M144.206 0H0.132812V132.333H144.206V0Z" fill="#493827"/>
<path d="M62.9681 51.4069L62.7348 51.6081L61.6772 50.6439L60.6259 51.6081L60.3926 51.4069L61.4502 50.4383L60.4099 49.4886L60.6448 49.2888L61.6788 50.2313L63.3148 48.7344L60.4005 46.0575L60.6085 45.8418L63.5402 48.5302L66.4783 45.8418L66.6784 46.0575L63.7593 48.7329L65.4033 50.2385L66.4436 49.2888L66.6784 49.4886L65.6319 50.4485L66.6784 51.4069L66.4436 51.6081L65.4065 50.6555L64.3725 51.6081L64.1203 51.4069L65.1779 50.4441L63.5387 48.937L61.9041 50.4354L62.9681 51.4069Z" stroke="#DBAE6F" stroke-width="0.216" stroke-miterlimit="22.9256"/>
<path d="M71.6034 51.4069L71.3686 51.6081L70.3141 50.6439L69.2628 51.6081L69.0264 51.4069L70.0871 50.4383L69.0453 49.4886L69.2786 49.2888L70.3141 50.2313L71.9518 48.7344L69.0358 46.0575L69.2455 45.8418L72.1756 48.5302L75.1136 45.8418L75.3122 46.0575L72.3963 48.7329L74.0387 50.2385L75.0789 49.2888L75.3122 49.4886L74.2656 50.4485L75.3122 51.4069L75.0789 51.6081L74.0434 50.6555L73.0063 51.6081L72.7541 51.4069L73.8117 50.4441L72.1724 48.937L70.5379 50.4354L71.6034 51.4069Z" stroke="#DBAE6F" stroke-width="0.216" stroke-miterlimit="22.9256"/>
<path d="M80.2396 51.4069L80.0047 51.6081L78.9487 50.6439L77.8989 51.6081L77.6641 51.4069L78.7233 50.4383L77.6798 49.4886L77.9163 49.2888L78.9502 50.2313L80.5863 48.7344L77.672 46.0575L77.88 45.8418L80.8117 48.5302L83.7498 45.8418L83.9484 46.0575L81.0324 48.7329L82.6732 50.2385L83.7135 49.2888L83.9484 49.4886L82.9034 50.4485L83.9484 51.4069L83.7135 51.6081L82.6795 50.6555L81.6424 51.6081L81.3902 51.4069L82.4494 50.4441L80.8102 48.937L79.1756 50.4354L80.2396 51.4069Z" stroke="#DBAE6F" stroke-width="0.216" stroke-miterlimit="22.9256"/>
<path d="M123.033 72.0004V62.8174H122.068V72.7778C122.068 73.9418 122.046 74.7033 122.002 75.0667C121.956 75.4301 121.882 75.6878 121.778 75.8441C121.922 75.8325 122.074 75.8166 122.241 75.8021C122.405 75.7877 122.561 75.779 122.706 75.779C122.851 75.779 123 75.7862 123.156 75.8021C123.31 75.8181 123.446 75.8325 123.565 75.8441C123.38 75.446 123.242 74.961 123.16 74.3877C123.072 73.8187 123.033 73.0239 123.033 72.0004ZM124.171 71.1216C124.171 73.0124 124.254 74.2256 124.413 74.7641C124.574 75.2983 124.872 75.6385 125.304 75.779C125.449 75.8094 125.66 75.8282 125.935 75.8369C126.44 75.8557 126.693 75.999 126.693 76.2582C126.693 76.3899 126.653 76.4884 126.573 76.5492C126.491 76.6143 126.366 76.6433 126.199 76.6433C126.133 76.6433 125.723 76.6244 124.965 76.5868C124.207 76.5492 123.488 76.5303 122.803 76.5303C122.126 76.5303 121.408 76.5492 120.657 76.5868C119.902 76.6244 119.5 76.6433 119.442 76.6433C119.274 76.6433 119.149 76.6129 119.067 76.5492C118.988 76.4884 118.947 76.3899 118.947 76.2582C118.947 76.0265 119.158 75.8861 119.575 75.8369C119.726 75.8209 119.858 75.8021 119.962 75.779C120.582 75.7109 120.993 75.5372 121.195 75.2563C121.397 74.9769 121.494 74.2704 121.494 73.1455V62.8174H119.866C118.85 62.8174 118.087 62.9043 117.576 63.0795C117.065 63.2503 116.681 63.5413 116.425 63.9481C116.306 64.1407 116.179 64.3839 116.038 64.6792C115.848 65.086 115.637 65.2902 115.41 65.2902C115.349 65.2902 115.292 65.267 115.238 65.2178C115.186 65.1685 115.16 65.1121 115.16 65.0469C115.16 64.963 115.313 64.5533 115.617 63.8149C115.923 63.0766 116.075 62.4584 116.075 61.9546C116.075 61.7765 116.109 61.6593 116.175 61.5941C116.238 61.5333 116.343 61.5 116.498 61.5C116.556 61.5 116.618 61.5449 116.687 61.6404C116.753 61.7316 116.824 61.7997 116.898 61.8446C117.001 61.9126 117.141 61.9589 117.319 61.985C117.496 62.011 117.782 62.0226 118.178 62.0226H119.326H119.92H127.619C129.055 62.0226 130.045 61.875 130.595 61.5796C130.636 61.5565 130.662 61.5463 130.669 61.5463C130.726 61.5463 130.797 61.5796 130.881 61.652C130.967 61.7201 131.008 61.7838 131.008 61.8446C131.008 61.8894 130.871 62.1631 130.595 62.6712C130.323 63.175 130.104 63.6788 129.943 64.1827C129.91 64.2768 129.873 64.4027 129.825 64.5576C129.656 65.1266 129.473 65.4103 129.279 65.4103C129.159 65.4103 129.063 65.3828 128.999 65.3336C128.937 65.28 128.902 65.2047 128.902 65.1106C128.902 65.0802 128.936 64.9355 129.005 64.6749C129.071 64.4099 129.107 64.1624 129.107 63.925C129.107 63.5123 128.896 63.2243 128.477 63.0607C128.059 62.8985 127.276 62.8189 126.128 62.8189H124.174V71.1216H124.171ZM101.439 63.5934V71.1245C101.439 73.0037 101.53 74.2096 101.712 74.7409C101.893 75.2679 102.24 75.5937 102.746 75.7109C102.933 75.7558 103.204 75.7906 103.559 75.821C104.092 75.8673 104.361 76.0106 104.361 76.2567C104.361 76.3885 104.311 76.4869 104.208 76.5477C104.109 76.6129 103.959 76.6418 103.767 76.6418C103.68 76.6418 103.326 76.623 102.709 76.5854C102.095 76.5477 101.521 76.5289 100.998 76.5289C100.548 76.5289 100.057 76.5477 99.5238 76.5854C98.9926 76.623 98.6821 76.6418 98.5923 76.6418C98.422 76.6418 98.2959 76.6114 98.2171 76.5477C98.1367 76.4869 98.0974 76.3885 98.0974 76.2567C98.0974 76.0106 98.3275 75.8658 98.7861 75.821C99.0919 75.7906 99.3268 75.7572 99.4875 75.7109C99.9194 75.5922 100.219 75.2708 100.378 74.7438C100.54 74.2183 100.621 73.0196 100.621 71.1477V65.5044C100.621 64.3535 100.534 63.6397 100.361 63.3705C100.187 63.0983 99.8422 62.9231 99.3252 62.8435C99.248 62.8276 99.1361 62.8131 99.0005 62.7972C98.6443 62.7595 98.4678 62.6234 98.4678 62.3875C98.4678 62.2586 98.5009 62.1689 98.5623 62.1081C98.6301 62.0516 98.7357 62.0197 98.8933 62.0197C98.98 62.0197 99.2401 62.0386 99.6641 62.0776C100.093 62.1153 100.477 62.1341 100.815 62.1341C101.541 62.1341 102.246 62.1037 102.946 62.04C103.072 62.0284 103.147 62.0212 103.171 62.0212C103.384 62.0212 103.759 62.3325 104.298 62.955C104.572 63.2648 104.798 63.5152 104.976 63.7092C106.429 65.2713 109.159 67.8932 113.175 71.5704L113.743 72.1046V67.5255C113.743 65.6463 113.653 64.436 113.472 63.8945C113.29 63.356 112.939 63.0042 112.423 62.8406C112.255 62.8174 112.023 62.803 111.73 62.7957C111.142 62.7798 110.847 62.6365 110.847 62.3643C110.847 62.2456 110.891 62.1587 110.978 62.1066C111.071 62.0501 111.214 62.0226 111.416 62.0226C111.519 62.0226 111.883 62.0415 112.497 62.0805C113.112 62.1196 113.678 62.137 114.186 62.137C114.611 62.137 115.093 62.1182 115.629 62.0805C116.165 62.0429 116.484 62.0226 116.589 62.0226C116.767 62.0226 116.895 62.0501 116.969 62.1066C117.048 62.1602 117.084 62.247 117.084 62.3643C117.084 62.6263 116.832 62.7653 116.332 62.7856C116.06 62.7928 115.845 62.8116 115.692 62.842C115.262 62.9912 114.963 63.3314 114.803 63.8656C114.643 64.3969 114.561 65.6058 114.561 67.4849V76.1684C114.561 76.4102 114.528 76.5926 114.465 76.7142C114.398 76.8358 114.304 76.8966 114.184 76.8966C114.006 76.8966 113.858 76.7518 113.738 76.4637C113.68 76.3233 113.631 76.2133 113.593 76.1424C113.36 75.7254 113.065 75.3041 112.715 74.8683C112.362 74.4369 111.891 73.9244 111.295 73.3323C111.238 73.2715 110.05 72.1466 107.725 69.9519C105.403 67.7556 103.307 65.6362 101.439 63.5934ZM113.741 73.2773C110.879 70.7148 108.522 68.5287 106.667 66.7089C104.814 64.8891 103.564 63.5471 102.914 62.6828C102.705 62.732 102.514 62.774 102.345 62.8015C102.178 62.8276 102.013 62.8392 101.852 62.8392C101.811 62.8392 101.749 62.8363 101.671 62.8276C101.589 62.8203 101.53 62.816 101.489 62.816C103.586 65.0759 106.056 67.553 108.904 70.2559C111.752 72.9588 113.364 74.6179 113.743 75.2332V73.2773H113.741ZM90.3945 77.0066C89.154 77.0066 88.0097 76.8213 86.9584 76.4493C85.9055 76.0815 84.9629 75.5285 84.1354 74.7974C83.3568 74.1068 82.7657 73.3033 82.3685 72.3869C81.9776 71.4691 81.7806 70.447 81.7806 69.3206C81.7806 68.2739 81.9934 67.2822 82.4174 66.3383C82.8477 65.3944 83.4576 64.5533 84.2552 63.8106C85.0638 63.0867 85.9827 62.5366 87.0151 62.1703C88.0507 61.7982 89.1777 61.6129 90.3945 61.6129C91.6113 61.6129 92.7462 61.8026 93.7943 62.1775C94.8457 62.5568 95.7851 63.1099 96.6047 63.8337C97.4054 64.546 98.0043 65.3611 98.4079 66.2819C98.8082 67.207 99.0115 68.2262 99.0115 69.3453C99.0115 70.3876 98.7956 71.3837 98.3716 72.3276C97.9445 73.2715 97.3313 74.101 96.5369 74.822C95.7267 75.5531 94.8157 76.1033 93.7912 76.4623C92.7682 76.8242 91.6381 77.0066 90.3945 77.0066ZM90.7444 76.1206C92.2244 76.1206 93.4759 75.514 94.491 74.3052C95.5077 73.0963 96.0152 71.5719 96.0152 69.7347C96.0152 68.8849 95.8781 68.0553 95.6022 67.2446C95.328 66.4339 94.9197 65.6637 94.3807 64.9413C93.7534 64.0726 93.0693 63.4327 92.3206 63.0158C91.5735 62.5945 90.7444 62.386 89.8239 62.386C88.284 62.386 87.0388 62.9202 86.082 63.9843C85.13 65.0498 84.6508 66.4483 84.6508 68.1798C84.6508 69.1049 84.7738 70.0025 85.0181 70.8741C85.264 71.7413 85.6123 72.5216 86.0647 73.2078C86.6999 74.1705 87.4108 74.8973 88.1989 75.3866C88.9838 75.8774 89.8334 76.1206 90.7444 76.1206ZM88.0349 76.1424C86.547 75.3953 85.4232 74.4297 84.6682 73.2498C83.9132 72.067 83.5365 70.6801 83.5365 69.0919C83.5365 67.8686 83.7871 66.7321 84.2883 65.681C84.788 64.6314 85.5083 63.7223 86.454 62.9492C85.2908 63.4457 84.3451 64.2825 83.6153 65.461C82.8855 66.6365 82.523 67.925 82.523 69.3235C82.523 71.0101 83.01 72.4608 83.9873 73.6696C84.9598 74.8814 86.309 75.7066 88.0349 76.1424ZM94.6486 75.1883C95.6353 74.6613 96.3903 73.9143 96.9231 72.9443C97.4543 71.9743 97.7222 70.8625 97.7222 69.6131C97.7222 67.7556 97.2115 66.1443 96.1917 64.7777C95.1719 63.4139 93.8842 62.6176 92.3253 62.386C93.6824 63.023 94.759 64.0089 95.5597 65.3452C96.3572 66.68 96.7576 68.1567 96.7576 69.7796C96.7576 70.7959 96.5858 71.7427 96.2422 72.6215C95.8986 73.5046 95.3658 74.3573 94.6486 75.1883ZM79.0349 72.0033V66.6814C79.0349 65.6521 79.0743 64.8515 79.161 64.2753C79.2445 63.7034 79.3816 63.2185 79.5755 62.816C79.4762 62.816 79.3312 62.8203 79.1341 62.8276C78.9371 62.8348 78.7921 62.8392 78.6976 62.8392C78.5825 62.8392 78.4249 62.8363 78.2263 62.8276C78.0245 62.8203 77.8748 62.816 77.7818 62.816C77.8764 62.9637 77.9457 63.2025 77.9835 63.5283C78.0245 63.8555 78.045 64.4186 78.045 65.2265V65.8939V73.4351C78.045 74.2429 78.0245 74.8075 77.9835 75.1362C77.9473 75.4663 77.8764 75.7008 77.7818 75.8412C77.9347 75.8296 78.0907 75.8137 78.2562 75.7992C78.4201 75.7848 78.5746 75.7761 78.718 75.7761C78.863 75.7761 79.0128 75.7833 79.1594 75.7992C79.3075 75.8152 79.4494 75.8296 79.5771 75.8412C79.3832 75.4431 79.2461 74.9581 79.1625 74.3891C79.0743 73.8187 79.0349 73.0239 79.0349 72.0033ZM65.3377 65.5044L70.5407 75.514L71.1098 74.3008C70.9253 73.9823 70.711 73.6218 70.4714 73.2208C70.2287 72.8155 70.0978 72.5838 70.071 72.523L66.378 65.4393C66.1715 65.0383 66.0123 64.6705 65.9036 64.3332C65.7917 63.9959 65.7381 63.7034 65.7381 63.4501C65.7381 63.3705 65.7601 63.2228 65.7995 63.0071C65.8185 62.9231 65.8311 62.8623 65.8327 62.8174C65.7129 62.8174 65.5363 62.8218 65.2967 62.829C65.0572 62.8363 64.8838 62.8406 64.7719 62.8406C64.6395 62.8406 64.4598 62.8377 64.2186 62.829C63.9838 62.8218 63.8009 62.8174 63.6827 62.8174C63.9255 63.1128 64.1839 63.4921 64.4661 63.951C64.753 64.4085 65.043 64.9282 65.3377 65.5044ZM63.6591 71.1245C63.6591 73.0037 63.7505 74.214 63.9318 74.7511C64.113 75.2896 64.4551 75.6298 64.9673 75.7775C65.1439 75.8079 65.3882 75.8267 65.7018 75.8354C66.2834 75.8542 66.5735 75.9976 66.5735 76.2567C66.5735 76.3885 66.5246 76.4869 66.4253 76.5477C66.3213 76.6129 66.1763 76.6418 65.9824 76.6418C65.8926 76.6418 65.5426 76.623 64.9263 76.5854C64.3116 76.5477 63.7379 76.5289 63.2177 76.5289C62.7654 76.5289 62.2736 76.5477 61.7409 76.5854C61.2128 76.623 60.9039 76.6418 60.8125 76.6418C60.6438 76.6418 60.5177 76.6114 60.4373 76.5477C60.357 76.4869 60.3176 76.3885 60.3176 76.2567C60.3176 75.999 60.5729 75.8542 61.0804 75.8354C61.3452 75.8282 61.5549 75.8079 61.7077 75.7775C62.1396 75.6371 62.4375 75.2954 62.5967 74.7627C62.7591 74.2241 62.8395 73.0181 62.8395 71.1462V65.5044C62.8395 64.3868 62.7402 63.6861 62.54 63.4009C62.3398 63.1157 61.9253 62.926 61.3058 62.8392C61.2113 62.8247 61.082 62.8088 60.9323 62.7943C60.5225 62.761 60.316 62.6234 60.316 62.3846C60.316 62.2528 60.3522 62.1573 60.431 62.1037C60.5067 62.0472 60.6328 62.0197 60.8109 62.0197C60.8692 62.0197 61.268 62.0429 62.0198 62.0878C62.767 62.1327 63.4904 62.1558 64.1824 62.1558C64.816 62.1558 65.4812 62.1327 66.1715 62.0878C66.8619 62.0429 67.237 62.0197 67.2985 62.0197C67.4751 62.027 67.5838 62.0429 67.6153 62.069C67.6453 62.095 67.661 62.1486 67.661 62.2326C67.661 62.2963 67.5381 62.441 67.2812 62.6567C67.0258 62.8768 66.9013 63.1272 66.9013 63.4081C66.9013 63.605 66.9313 63.8323 66.9975 64.0784C67.0637 64.3245 67.1551 64.5634 67.2749 64.7936L70.2649 70.6453C70.5092 71.097 70.7409 71.5284 70.9663 71.9338C71.1933 72.3435 71.4234 72.7445 71.6551 73.1426L76.1205 64.4592C76.2481 64.2087 76.3474 63.9713 76.4089 63.7498C76.4767 63.5268 76.5082 63.3299 76.5082 63.1591C76.5082 62.9535 76.3963 62.7682 76.1741 62.6133C75.955 62.4541 75.8446 62.3484 75.8446 62.2948C75.8446 62.2007 75.8651 62.1312 75.9093 62.0892C75.955 62.0487 76.0716 62.0255 76.2655 62.0168C76.2907 62.0168 76.6091 62.04 77.2159 62.0849C77.8259 62.1298 78.4249 62.1529 79.0112 62.1529C79.618 62.1529 80.2737 62.1298 80.983 62.0849C81.6923 62.04 82.0974 62.0168 82.203 62.0168C82.389 62.0168 82.5167 62.0443 82.5907 62.1008C82.6617 62.1544 82.6979 62.2412 82.6979 62.3585C82.6979 62.6278 82.4599 62.7639 81.9808 62.7798C81.7081 62.787 81.4937 62.8059 81.3377 62.8363C80.8885 62.9854 80.5779 63.3372 80.4172 63.8902C80.2548 64.4476 80.1744 65.6564 80.1744 67.524V71.1202C80.1744 72.9733 80.2564 74.1705 80.4172 74.725C80.5779 75.2781 80.8822 75.627 81.3282 75.7746C81.4811 75.805 81.6939 75.8238 81.9682 75.8325C82.4552 75.8514 82.6979 75.9947 82.6979 76.2538C82.6979 76.3856 82.6585 76.484 82.5781 76.5448C82.4962 76.61 82.3717 76.6389 82.203 76.6389C82.1447 76.6389 81.7459 76.6201 80.9988 76.5825C80.2548 76.5448 79.5329 76.526 78.841 76.526C78.149 76.526 77.4256 76.5448 76.6706 76.5825C75.9187 76.6201 75.5105 76.6389 75.4443 76.6389C75.2835 76.6389 75.159 76.6085 75.0786 76.5448C74.9903 76.484 74.9509 76.3856 74.9509 76.2538C74.9588 76.0222 75.1653 75.8818 75.5672 75.8325C75.7185 75.8166 75.8509 75.7978 75.9534 75.7746C76.5728 75.7066 76.989 75.5329 77.1923 75.2404C77.3988 74.9523 77.4996 74.2545 77.4996 73.1412V63.4458L71.2563 75.8325L71.2485 75.8514C70.9884 76.3479 70.7866 76.594 70.6416 76.594C70.4793 76.594 70.2949 76.3856 70.0836 75.9643C70.0427 75.889 70.0143 75.8398 69.997 75.8094L63.6591 63.5905V71.1245ZM55.0688 73.2556L58.0305 67.1606C58.5049 66.2051 58.8438 65.4595 59.0471 64.9253C59.2489 64.3868 59.3466 63.9742 59.3466 63.6861C59.3466 63.4284 59.2552 63.2344 59.0739 63.1099C58.8927 62.9854 58.579 62.9014 58.1251 62.8681C58.0636 62.8609 57.9627 62.8493 57.835 62.8348C57.3606 62.774 57.121 62.6495 57.121 62.4555C57.121 62.3078 57.1636 62.1978 57.2408 62.1298C57.3244 62.0574 57.4568 62.0241 57.6412 62.0241C57.761 62.0241 58.0746 62.0472 58.5822 62.0921C59.0897 62.137 59.5342 62.1602 59.9172 62.1602C60.3916 62.1602 60.9055 62.137 61.4619 62.0921C62.0167 62.0472 62.3367 62.0241 62.4155 62.0241C62.592 62.0241 62.7228 62.0516 62.8064 62.1081C62.8931 62.1645 62.9356 62.2485 62.9356 62.3701C62.9356 62.5815 62.7575 62.7335 62.4029 62.8247C62.3146 62.8478 62.2531 62.8623 62.2216 62.8652C61.7535 62.9941 61.3846 63.1837 61.1104 63.4458C60.8345 63.7034 60.4909 64.2449 60.0843 65.0744L55.5858 74.1894C55.3352 74.6772 55.0988 75.265 54.8797 75.9556C54.6574 76.6418 54.4399 76.9864 54.2208 76.9864C54.0017 76.9864 53.6345 76.3204 53.1112 74.99C52.5863 73.6551 52.0504 72.4347 51.5019 71.3243L48.6695 65.5754C48.3984 65.0021 48.1415 64.5373 47.9035 64.1769C47.6686 63.8135 47.429 63.521 47.1863 63.2981C46.9246 63.0404 46.4928 62.8956 45.8812 62.8652C45.6968 62.7899 45.577 62.7219 45.5297 62.6538C45.4808 62.5901 45.4556 62.5033 45.4556 62.3889C45.4556 62.2572 45.4919 62.1616 45.5628 62.1081C45.6369 62.0516 45.7645 62.0241 45.9505 62.0241C46.0325 62.0241 46.425 62.0472 47.1295 62.0921C47.8357 62.137 48.4961 62.1602 49.1187 62.1602C49.705 62.1602 50.3402 62.137 51.018 62.0921C51.6942 62.0472 52.0741 62.0241 52.1655 62.0241C52.342 62.0241 52.4697 62.0516 52.5453 62.1081C52.6226 62.1616 52.6588 62.2485 52.6588 62.3701C52.6588 62.4874 52.6305 62.5786 52.5769 62.651C52.5201 62.719 52.4003 62.7914 52.2143 62.8667C51.732 62.9275 51.4058 63.0158 51.2371 63.1287C51.0684 63.2416 50.9818 63.4168 50.9818 63.6441C50.9818 63.7758 51.0212 63.9655 51.1 64.2044C51.1835 64.4432 51.3569 64.8718 51.6201 65.4856L55.0688 73.2556ZM47.5614 62.8392C48.0768 63.3661 48.7814 64.5373 49.6782 66.36L49.7113 66.4353L52.5658 72.287L52.5926 72.3334C53.034 73.3149 53.5305 74.4398 54.0774 75.7066L54.5975 74.2965L50.3056 65.1816C50.17 64.8776 50.0581 64.5866 49.9793 64.3057C49.8958 64.0263 49.8595 63.7787 49.8595 63.5703C49.869 63.4371 49.8926 63.3126 49.9383 63.1881C49.9793 63.0664 50.0439 62.9492 50.1243 62.8392C49.9966 62.8392 49.7854 62.8435 49.497 62.8507C49.2038 62.858 48.991 62.8623 48.8444 62.8623C48.7057 62.8623 48.4992 62.8594 48.214 62.8507C47.9318 62.8435 47.7143 62.8392 47.5614 62.8392ZM39.3037 77.0066C38.0617 77.0066 36.9174 76.8213 35.8661 76.4493C34.8147 76.0815 33.8722 75.5285 33.0447 74.7974C32.2644 74.1068 31.675 73.3033 31.2778 72.3869C30.8869 71.4691 30.6883 70.447 30.6883 69.3206C30.6883 68.2739 30.9026 67.2822 31.3266 66.3383C31.7553 65.3944 32.3669 64.5533 33.1645 63.8106C33.9715 63.0867 34.892 62.5366 35.9228 62.1703C36.9599 61.7982 38.0869 61.6129 39.3037 61.6129C40.5206 61.6129 41.6554 61.8026 42.7036 62.1775C43.7549 62.5568 44.6927 63.1099 45.5124 63.8337C46.3131 64.546 46.9136 65.3611 47.3171 66.2819C47.7175 67.207 47.9208 68.2262 47.9208 69.3453C47.9208 70.3876 47.7048 71.3837 47.2809 72.3276C46.8521 73.2715 46.2406 74.101 45.4446 74.822C44.636 75.5531 43.7234 76.1033 42.7004 76.4623C41.6775 76.8242 40.5458 77.0066 39.3037 77.0066ZM39.6536 76.1206C41.1337 76.1206 42.3836 75.514 43.4003 74.3052C44.4169 73.0963 44.9229 71.5719 44.9229 69.7347C44.9229 68.8849 44.7873 68.0553 44.5099 67.2446C44.2372 66.4339 43.829 65.6637 43.2899 64.9413C42.6626 64.0726 41.977 63.4327 41.2298 63.0158C40.4827 62.5945 39.6536 62.386 38.7332 62.386C37.1932 62.386 35.948 62.9202 34.9897 63.9843C34.0377 65.0498 33.5585 66.4483 33.5585 68.1798C33.5585 69.1049 33.683 70.0025 33.9273 70.8741C34.1732 71.7413 34.5216 72.5216 34.9739 73.2078C35.6091 74.1705 36.32 74.8973 37.1081 75.3866C37.893 75.8774 38.7426 76.1206 39.6536 76.1206ZM36.9426 76.1424C35.4547 75.3953 34.3324 74.4297 33.5774 73.2498C32.8224 72.067 32.4457 70.6801 32.4457 69.0919C32.4457 67.8686 32.6963 66.7321 33.1976 65.681C33.6956 64.6314 34.4175 63.7223 35.3632 62.9492C34.2 63.4457 33.2543 64.2825 32.5245 65.461C31.7947 66.6365 31.4322 67.925 31.4322 69.3235C31.4322 71.0101 31.9193 72.4608 32.8965 73.6696C33.869 74.8814 35.2182 75.7066 36.9426 76.1424ZM43.5579 75.1883C44.543 74.6613 45.298 73.9143 45.8307 72.9443C46.3619 71.9743 46.6315 70.8625 46.6315 69.6131C46.6315 67.7556 46.1208 66.1443 45.0994 64.7777C44.0812 63.4139 42.7934 62.6176 41.233 62.386C42.5901 63.023 43.6682 64.0089 44.4689 65.3452C45.2665 66.68 45.6668 68.1567 45.6668 69.7796C45.6668 70.7959 45.4934 71.7427 45.1498 72.6215C44.8078 73.5046 44.275 74.3573 43.5579 75.1883ZM17.4214 71.996V66.68C17.4214 65.6535 17.4608 64.8486 17.5475 64.2767C17.6311 63.7049 17.7713 63.217 17.9652 62.8174C17.8706 62.8174 17.7225 62.8218 17.5239 62.829C17.3269 62.8363 17.1787 62.8406 17.0715 62.8406C16.9675 62.8406 16.8162 62.8377 16.6128 62.829C16.4111 62.8218 16.2613 62.8174 16.1668 62.8174C16.2708 62.981 16.3449 63.2416 16.3922 63.6064C16.4347 63.9698 16.4568 64.7313 16.4568 65.8924V72.7706C16.4568 73.9346 16.4347 74.6961 16.3922 75.0609C16.3465 75.4243 16.2724 75.682 16.1668 75.8383C16.3212 75.8224 16.4773 75.8079 16.6381 75.792C16.8004 75.7775 16.9517 75.7688 17.0967 75.7688C17.2496 75.7688 17.4009 75.7761 17.5491 75.792C17.6988 75.8079 17.8391 75.8224 17.9668 75.8383C17.7729 75.4402 17.6326 74.9552 17.5491 74.3834C17.4608 73.8115 17.4214 73.0167 17.4214 71.996ZM24.7034 62.7711C26.0416 63.453 27.0551 64.3593 27.7439 65.4885C28.4375 66.6221 28.7842 67.9439 28.7842 69.4524C28.7842 70.8813 28.4091 72.1582 27.6541 73.2918C26.9022 74.4253 25.8872 75.2404 24.6073 75.7442C26.1851 75.5502 27.4429 74.8756 28.387 73.7203C29.328 72.5607 29.7993 71.1013 29.7993 69.3438C29.7993 67.6905 29.3248 66.2587 28.3807 65.0411C27.4366 63.8236 26.2103 63.0679 24.7034 62.7711ZM18.561 67.5023V71.042C18.561 72.2784 18.6004 73.2252 18.6792 73.8839C18.7628 74.544 18.8857 74.9986 19.0544 75.252C19.2309 75.5024 19.5115 75.6921 19.8961 75.8166C20.2806 75.9411 20.7504 76.0063 21.3036 76.0063C23.2549 76.0063 24.8658 75.3808 26.1236 74.1343C27.3877 72.8879 28.0182 71.304 28.0182 69.3887C28.0182 67.4024 27.3987 65.778 26.1551 64.5113C24.9147 63.2445 23.3337 62.6119 21.4139 62.6119C20.7913 62.6119 20.2838 62.664 19.8834 62.774C19.4831 62.8797 19.2057 63.036 19.0544 63.2445C18.892 63.4762 18.7691 63.9452 18.6871 64.6619C18.6004 65.3756 18.561 66.3224 18.561 67.5023ZM15.8846 65.5044C15.8846 64.3868 15.7853 63.6861 15.5836 63.4009C15.3818 63.1171 14.9689 62.926 14.351 62.8392C14.2564 62.8247 14.1272 62.8088 13.9759 62.7943C13.5503 62.761 13.3375 62.6234 13.3375 62.3846C13.3375 62.2601 13.3769 62.1689 13.4573 62.1081C13.5393 62.0516 13.6717 62.0197 13.8577 62.0197C13.968 62.0197 14.3841 62.0357 15.095 62.0661C15.8074 62.0965 16.46 62.1109 17.0494 62.1109C17.3789 62.1109 18.0724 62.0733 19.1284 61.9966C20.1813 61.9213 21.0719 61.8822 21.7985 61.8822C24.6609 61.8822 26.9054 62.5612 28.5399 63.9221C30.1697 65.2786 30.9877 67.1389 30.9877 69.5016C30.9877 71.8209 30.239 73.6059 28.7432 74.8568C27.249 76.1076 25.1148 76.733 22.3423 76.733C21.5826 76.733 20.6211 76.6983 19.4579 76.6302C18.2946 76.5622 17.5144 76.5274 17.1188 76.5274C16.4757 76.5274 15.7853 76.5463 15.0508 76.5839C14.3163 76.6215 13.9097 76.6404 13.8309 76.6404C13.6622 76.6404 13.5361 76.61 13.4557 76.5463C13.3753 76.4826 13.3359 76.3841 13.3359 76.2466C13.3359 76.0149 13.5456 75.876 13.9633 75.8224C14.124 75.8079 14.2517 75.792 14.3368 75.7775C14.9626 75.7008 15.3803 75.5271 15.582 75.2433C15.7853 74.9639 15.8831 74.2617 15.8831 73.1369V65.5044H15.8846Z" fill="#DBAE6F"/>
<path fill-rule="evenodd" clip-rule="evenodd" d="M72.1684 91.5889L16.7227 92.8846L72.1684 94.2556L127.616 92.8846L72.1684 91.5889Z" fill="#DBAE6F"/>
</svg>
