<svg width="28" height="26" viewBox="0 0 28 26" fill="none" xmlns="http://www.w3.org/2000/svg">
<path d="M26.0281 0.882814H8.06711C7.91992 0.882691 7.77414 0.91156 7.6381 0.967774C7.50207 1.02399 7.37844 1.10645 7.27427 1.21044C7.1701 1.31443 7.08743 1.43793 7.03099 1.57387C6.97455 1.70981 6.94544 1.85554 6.94531 2.00273V6.99486L17.3537 10.0509L27.1508 6.99486V2.00273C27.1507 1.85546 27.1215 1.70965 27.065 1.57365C27.0085 1.43765 26.9258 1.31411 26.8215 1.21011C26.7173 1.1061 26.5935 1.02366 26.4574 0.967504C26.3212 0.911345 26.1753 0.882567 26.0281 0.882814Z" fill="#41A5EE"/>
<path d="M27.1508 6.99609H6.94531V13.1081L17.3537 14.9418L27.1508 13.1081V6.99609Z" fill="#2B7CD3"/>
<path d="M6.94531 13.1074V19.2195L16.7415 20.4419L27.1508 19.2195V13.1074H6.94531Z" fill="#185ABD"/>
<path d="M8.06711 25.3308H26.0271C26.1745 25.3312 26.3205 25.3025 26.4567 25.2464C26.593 25.1903 26.7168 25.1079 26.8212 25.0038C26.9256 24.8998 27.0084 24.7762 27.0649 24.6402C27.1215 24.5041 27.1507 24.3582 27.1508 24.2109V19.2188H6.94531V24.2109C6.94544 24.3581 6.97455 24.5038 7.03099 24.6397C7.08743 24.7757 7.1701 24.8992 7.27427 25.0032C7.37844 25.1072 7.50207 25.1896 7.6381 25.2458C7.77414 25.3021 7.91992 25.3309 8.06711 25.3308Z" fill="#103F91"/>
<path opacity="0.1" d="M14.3945 5.77148H6.94531V21.0516H14.3945C14.6913 21.0501 14.9756 20.9318 15.1858 20.7221C15.3959 20.5125 15.515 20.2285 15.5172 19.9317V6.8914C15.515 6.59458 15.3959 6.31059 15.1858 6.10096C14.9756 5.89134 14.6913 5.77296 14.3945 5.77148Z" fill="black"/>
<path opacity="0.2" d="M13.7823 6.38281H6.94531V21.6629H13.7823C14.0792 21.6615 14.3635 21.5431 14.5736 21.3335C14.7838 21.1238 14.9029 20.8398 14.9051 20.543V7.50273C14.9029 7.20591 14.7838 6.92192 14.5736 6.71229C14.3635 6.50266 14.0792 6.38429 13.7823 6.38281Z" fill="black"/>
<path opacity="0.2" d="M13.7823 6.38281H6.94531V20.4405H13.7823C14.0792 20.4391 14.3635 20.3207 14.5736 20.111C14.7838 19.9014 14.9029 19.6174 14.9051 19.3206V7.50273C14.9029 7.20591 14.7838 6.92192 14.5736 6.71229C14.3635 6.50266 14.0792 6.38429 13.7823 6.38281Z" fill="black"/>
<path opacity="0.2" d="M13.1702 6.38281H6.94531V20.4405H13.1702C13.467 20.4391 13.7513 20.3207 13.9615 20.111C14.1716 19.9014 14.2907 19.6174 14.2929 19.3206V7.50273C14.2907 7.20591 14.1716 6.92192 13.9615 6.71229C13.7513 6.50266 13.467 6.38429 13.1702 6.38281Z" fill="black"/>
<path d="M1.945 6.38281H13.1705C13.4678 6.38256 13.7531 6.50038 13.9637 6.71038C14.1742 6.92038 14.2927 7.20537 14.2932 7.50273V18.7094C14.2927 19.0068 14.1742 19.2918 13.9637 19.5018C13.7531 19.7118 13.4678 19.8296 13.1705 19.8293H1.945C1.79773 19.8296 1.65185 19.8008 1.51571 19.7446C1.37956 19.6885 1.25582 19.606 1.15155 19.502C1.04729 19.398 0.964536 19.2745 0.908035 19.1385C0.851534 19.0025 0.822389 18.8567 0.822266 18.7094V7.50273C0.822389 7.35546 0.851534 7.20965 0.908035 7.07365C0.964536 6.93765 1.04729 6.81411 1.15155 6.71011C1.25582 6.6061 1.37956 6.52366 1.51571 6.4675C1.65185 6.41134 1.79773 6.38257 1.945 6.38281Z" fill="url(#paint0_linear_147_6854)"/>
<path d="M5.42911 14.9768C5.45074 15.1498 5.46579 15.3002 5.47237 15.429H5.4987C5.5081 15.3068 5.52879 15.1592 5.55982 14.9871C5.59085 14.815 5.61812 14.6693 5.64351 14.5499L6.8236 9.46557H8.35067L9.57308 14.4737C9.64428 14.7835 9.69517 15.0976 9.72541 15.414H9.7461C9.76856 15.106 9.81096 14.7997 9.87304 14.4972L10.85 9.45898H12.2389L10.5237 16.7445H8.89982L7.73665 11.9245C7.7028 11.7853 7.66456 11.6042 7.62193 11.381C7.5793 11.1578 7.55297 10.9948 7.54294 10.892H7.5232C7.51003 11.0105 7.4837 11.1863 7.44421 11.4195C7.40472 11.6537 7.37369 11.8258 7.35018 11.9386L6.25659 16.7474H4.6054L2.88086 9.46557H4.29133L5.35483 14.5602C5.38657 14.6977 5.41136 14.8367 5.42911 14.9768Z" fill="white"/>
<defs>
<linearGradient id="paint0_linear_147_6854" x1="3.16741" y1="5.50268" x2="11.9481" y2="20.7095" gradientUnits="userSpaceOnUse">
<stop stop-color="#2368C4"/>
<stop offset="0.5" stop-color="#1A5DBE"/>
<stop offset="1" stop-color="#1146AC"/>
</linearGradient>
</defs>
</svg>
