<svg width="144" height="51" viewBox="0 0 144 51" fill="none" xmlns="http://www.w3.org/2000/svg">
<path fill-rule="evenodd" clip-rule="evenodd" d="M10.7172 2.51275L10.7863 14.8098L7.95317 14.8201L7.88411 2.52311L0.144567 2.5527L0.132812 0.596421L18.4949 0.525391L18.5067 2.48315L10.7172 2.51275Z" fill="#60516D"/>
<path fill-rule="evenodd" clip-rule="evenodd" d="M26.1795 14.7519L26.1487 9.22044L31.1359 9.2012L38.0644 14.706L42.2655 14.6897L34.4775 9.18788L36.9593 9.179C38.2348 9.17456 39.1547 8.95259 39.7145 8.51605C40.2759 8.07952 40.5536 7.38106 40.5477 6.42067L40.5301 3.19918C40.5242 2.2314 40.2391 1.52998 39.6734 1.09788C39.1077 0.664301 38.1863 0.44973 36.9108 0.454169L23.2656 0.505967L23.3464 14.7608L26.1795 14.7519ZM37.2518 2.61762C37.5148 2.84107 37.6485 3.22433 37.65 3.77037L37.6617 5.87168C37.6661 6.41772 37.5383 6.80098 37.2826 7.01999C37.0284 7.239 36.5494 7.34998 35.844 7.35294L26.1369 7.38993L26.1075 2.3261L35.8146 2.28911C36.5112 2.28615 36.9887 2.39713 37.2518 2.61762Z" fill="#60516D"/>
<path fill-rule="evenodd" clip-rule="evenodd" d="M51.1519 0.401932L51.2225 12.6575L63.6157 12.6102L63.5467 0.356062L66.3298 0.345703L66.39 11.2133C66.3988 12.5332 66.1285 13.4285 65.5804 13.8991C65.0337 14.3697 63.9963 14.6079 62.4696 14.6138L52.3774 14.6523C50.8375 14.6582 49.7898 14.4229 49.2299 13.9464C48.6715 13.4699 48.3894 12.5806 48.382 11.2813L48.3203 0.41377L51.1519 0.401932Z" fill="#60516D"/>
<path fill-rule="evenodd" clip-rule="evenodd" d="M81.2046 14.5428L71.8516 0.323548L74.9051 0.311711L82.4756 12.1648L89.576 0.255476L92.3885 0.245117L83.5836 14.5339L81.2046 14.5428Z" fill="#60516D"/>
<path fill-rule="evenodd" clip-rule="evenodd" d="M96.8006 11.0978C96.8079 12.3985 97.0871 13.2864 97.644 13.7629C98.198 14.2394 99.2545 14.4732 100.809 14.4687L112.557 14.4243C114.083 14.4184 115.119 14.1802 115.667 13.7081C116.213 13.2375 116.485 12.3423 116.476 11.0253L116.435 3.53752C116.426 2.23087 116.147 1.34152 115.595 0.869468C115.042 0.398896 114.003 0.165089 112.477 0.171008L100.728 0.2154C99.1722 0.221319 98.1216 0.464004 97.572 0.944936C97.021 1.42439 96.7506 2.31374 96.758 3.613L96.8006 11.0978ZM99.5837 2.17612L113.645 2.12285L113.704 12.4192L99.641 12.4725L99.5837 2.17612Z" fill="#60516D"/>
<path fill-rule="evenodd" clip-rule="evenodd" d="M127.892 14.3652L127.861 8.83377L132.848 8.81453L139.777 14.3193L143.978 14.3031L136.19 8.80121L138.673 8.79086C139.947 8.78642 140.867 8.56593 141.427 8.12791C141.988 7.69137 142.266 6.99291 142.26 6.03253L142.242 2.81103C142.237 1.84325 141.95 1.14182 141.384 0.709727C140.819 0.277628 139.897 0.0615821 138.622 0.0675012L124.977 0.119294L125.057 14.3741L127.892 14.3652ZM138.964 2.23243C139.227 2.4544 139.361 2.83766 139.364 3.3837L139.376 5.48501C139.379 6.03253 139.251 6.41432 138.996 6.63332C138.741 6.85233 138.26 6.96331 137.558 6.96627L127.851 7.00327L127.821 1.93943L137.529 1.90244C138.224 1.89948 138.703 2.01046 138.964 2.23243Z" fill="#60516D"/>
<path d="M8.21094 24.3223L133.381 25.0799" stroke="#60516D" stroke-width="1.0001" stroke-miterlimit="22.9256"/>
<path d="M95.8459 50.4925L100.622 45.1461L100.763 44.9714C101.443 44.2168 101.784 43.7255 101.784 43.4917C101.784 43.3674 101.749 43.2756 101.668 43.2149C101.588 43.1543 101.459 43.1276 101.283 43.1276C100.885 43.1276 100.376 43.317 99.7443 43.6929C99.1198 44.0703 98.1955 44.745 96.9773 45.7247C96.7261 45.9215 96.4263 46.1804 96.078 46.4927C95.6607 46.8789 95.3845 47.0713 95.2507 47.0713C95.2008 47.0713 95.164 47.0624 95.1273 47.0402C95.092 47.0165 95.0729 46.9899 95.0729 46.9662C95.0729 46.8922 95.1273 46.796 95.2434 46.6673C95.3536 46.543 95.5799 46.3358 95.9179 46.0517L97.0802 45.0957C98.269 44.1442 99.1624 43.5005 99.7619 43.175C100.369 42.848 100.92 42.6822 101.428 42.6822C101.844 42.6822 102.188 42.7932 102.457 43.0181C102.727 43.2431 102.859 43.5287 102.859 43.869C102.859 44.31 102.749 44.7554 102.529 45.2156C102.308 45.6714 101.829 46.3654 101.102 47.2888L101.137 47.2607C102.46 46.3003 103.508 45.5782 104.261 45.0957C104.726 44.1576 105.18 43.5242 105.615 43.1883C106.05 42.8524 106.607 42.6822 107.274 42.6822C107.513 42.6822 107.715 42.7236 107.873 42.811C108.038 42.8938 108.119 43.0004 108.119 43.1276C108.119 43.4399 107.409 43.9918 105.982 44.782C105.743 44.9211 105.559 45.0218 105.424 45.0943C104.886 45.3887 104.499 45.6965 104.267 46.0221C104.035 46.3447 103.919 46.7117 103.919 47.126C103.919 47.351 104.004 47.53 104.182 47.6632C104.354 47.7964 104.574 47.8659 104.837 47.8659C105.443 47.8659 106.061 47.6454 106.68 47.2045C107.305 46.7679 107.623 46.5459 107.635 46.5459C107.709 46.5548 107.757 46.5696 107.794 46.5918C107.831 46.614 107.848 46.6436 107.848 46.6791C107.848 46.8952 107.5 47.2074 106.795 47.6173C106.097 48.0257 105.474 48.2285 104.921 48.2285C104.42 48.2285 104.039 48.1367 103.776 47.9517C103.513 47.7682 103.378 47.5019 103.378 47.1512C103.378 47.0136 103.415 46.8434 103.488 46.6362C103.556 46.435 103.678 46.1642 103.843 45.8327C103.115 46.2885 102.313 46.8804 101.43 47.6025C100.548 48.3246 99.5444 49.2258 98.4041 50.3016L95.8459 50.4925ZM91.3626 47.9887C91.3876 47.9887 91.4419 47.9976 91.5213 48.0169C91.705 48.0538 91.846 48.0716 91.9563 48.0716C92.4338 48.0716 92.9422 47.9665 93.4859 47.7505C94.0311 47.5344 94.5336 47.2355 95.0053 46.8582L95.4697 46.4438C95.4947 46.4261 95.5373 46.4068 95.6049 46.3876C95.6666 46.3698 95.7268 46.361 95.7753 46.361C95.8179 46.361 95.8561 46.3743 95.8797 46.4024C95.9032 46.4305 95.9164 46.466 95.9164 46.5223C95.9164 46.5681 95.9164 46.6007 95.909 46.6185C95.9032 46.6318 95.8914 46.6466 95.8782 46.6554L95.4682 47.018C94.9657 47.4782 94.3911 47.8319 93.7343 48.076C93.0863 48.3232 92.4118 48.4475 91.7197 48.4475C91.5125 48.4475 91.3464 48.443 91.2245 48.4342C91.0952 48.4253 90.9849 48.4164 90.8924 48.406C90.0166 49.1134 89.1599 49.6609 88.315 50.0471C87.47 50.4333 86.7103 50.6272 86.03 50.6272C85.2409 50.6272 84.6282 50.3786 84.2064 49.8873C83.7832 49.3945 83.5687 48.6828 83.5687 47.7594C83.5687 47.5892 83.5937 47.4013 83.6422 47.1941C83.6906 46.9914 83.7582 46.7576 83.8567 46.4956C83.6539 46.6939 83.4893 46.836 83.36 46.9189C83.2366 47.0062 83.1337 47.0476 83.047 47.0476C82.9927 47.0476 82.9442 47.0431 82.9118 47.0298C82.881 47.0165 82.8692 46.984 82.8692 46.9425C82.8692 46.8878 82.9618 46.7679 83.1455 46.5889C83.335 46.4098 83.745 46.0561 84.3754 45.5278C85.4775 44.6311 86.5928 43.9282 87.7301 43.4221C88.8689 42.9116 89.9034 42.6585 90.8351 42.6585C91.6124 42.6585 92.2237 42.8376 92.6851 43.1972C93.1377 43.5553 93.364 44.0421 93.364 44.6533C93.364 45.1268 93.2053 45.6329 92.8864 46.1612C92.5808 46.6865 92.0665 47.2977 91.3626 47.9887ZM85.1909 49.1962C85.1909 49.5322 85.2835 49.7748 85.4657 49.9361C85.6568 50.0974 85.9374 50.1803 86.3239 50.1803C86.728 50.1803 87.2482 50.0279 87.8903 49.7305C88.528 49.4315 89.1643 49.032 89.7829 48.5392C90.5853 47.8911 91.2215 47.2104 91.6873 46.4853C92.1517 45.7631 92.3853 45.1061 92.3853 44.5172C92.3853 44.0851 92.2634 43.7447 92.018 43.5005C91.774 43.2519 91.4317 43.1276 90.9835 43.1276C90.4383 43.1276 89.8505 43.3111 89.226 43.684C88.6074 44.0569 87.9417 44.6163 87.2364 45.3621C86.5928 46.0517 86.0917 46.7413 85.7302 47.422C85.3673 48.1027 85.1909 48.6961 85.1909 49.1962ZM75.5573 48.0938C74.5169 48.9861 73.6176 49.6298 72.8565 50.0294C72.0968 50.4304 71.4061 50.6272 70.7875 50.6272C70.2908 50.6272 69.8882 50.534 69.5752 50.346C69.2563 50.1581 69.0976 49.9228 69.0976 49.6431C69.0976 49.3945 69.202 49.1814 69.4106 49.0128C69.6193 48.8441 69.8823 48.7553 70.1938 48.7553C70.7199 48.7553 71.0329 48.9669 71.1372 49.3901C71.2357 49.8089 71.4017 50.0205 71.628 50.0205C71.9645 50.0205 72.5391 49.7763 73.3546 49.2939C74.1628 48.8115 74.8667 48.2359 75.4559 47.57C75.9702 46.9943 76.3993 46.324 76.7534 45.5515C77.109 44.7791 77.2795 44.1502 77.2795 43.653C77.2795 43.4458 77.2442 43.3097 77.1634 43.2357C77.0899 43.1661 76.9489 43.1291 76.7475 43.1291C76.3743 43.1291 75.8718 43.3215 75.2355 43.7136C74.6036 44.1043 73.6926 44.785 72.5112 45.7543C72.2731 45.9422 71.9792 46.1864 71.6295 46.4942C71.2004 46.8759 70.9197 47.0698 70.7846 47.0698C70.7419 47.0698 70.6979 47.0609 70.6611 47.0372C70.6259 47.0136 70.6067 46.9914 70.6067 46.9632C70.6067 46.8893 70.6611 46.7931 70.7772 46.6688C70.8874 46.54 71.1137 46.3373 71.4517 46.0532L72.6155 45.0928C73.791 44.1413 74.6786 43.502 75.284 43.1765C75.8835 42.8494 76.4346 42.6837 76.9253 42.6837C77.5117 42.6837 77.9539 42.8805 78.2596 43.2771C78.5652 43.6722 78.7195 44.2375 78.7195 44.9729C78.7195 45.0188 78.7137 45.0957 78.7004 45.2023C78.6887 45.3088 78.6828 45.3902 78.6828 45.4465C79.6482 44.4313 80.477 43.7195 81.15 43.3052C81.823 42.8909 82.4975 42.6852 83.1646 42.6852C83.6671 42.6852 84.058 42.7725 84.3343 42.9471C84.6105 43.1217 84.7442 43.3659 84.7442 43.6825C84.7442 43.8794 84.6473 44.0451 84.4504 44.1886C84.2476 44.3263 84.0213 44.3958 83.7582 44.3958C83.3174 44.3958 82.9985 44.2212 82.8149 43.8764C82.6312 43.5316 82.4284 43.3614 82.2153 43.3614C81.8656 43.3614 81.3572 43.6189 80.6842 44.1428C80.0038 44.6622 79.3235 45.3325 78.6446 46.1612C78.1538 46.7546 77.7615 47.3746 77.4676 48.0228C77.1752 48.6754 77.0267 49.2229 77.0267 49.6727C77.0267 49.871 77.0752 50.0131 77.1751 50.096C77.2721 50.1833 77.4323 50.2247 77.6586 50.2247C77.9716 50.2247 78.4727 50.0175 79.1765 49.6047C79.8745 49.1918 80.7018 48.6117 81.6569 47.8674C81.9832 47.6277 82.3182 47.3524 82.6738 47.0446C83.0279 46.7368 83.2366 46.5815 83.3115 46.5815C83.3718 46.5815 83.4203 46.5948 83.4643 46.6229C83.507 46.651 83.5319 46.6776 83.5452 46.7146C83.5452 46.8256 83.4159 46.9943 83.1514 47.2252C82.8883 47.4605 82.424 47.823 81.7686 48.3187C80.7767 49.0867 79.9318 49.6653 79.2397 50.0516C78.5403 50.4378 77.9951 50.6316 77.5851 50.6316C77.0091 50.6316 76.533 50.4008 76.1421 49.9376C75.7557 49.4774 75.5602 48.8899 75.5602 48.1811V48.0938H75.5573ZM65.7414 48.0938L65.6871 48.1633C65.0434 48.9358 64.7202 49.4552 64.7202 49.726C64.7202 49.8858 64.7687 50.0101 64.8598 50.093C64.9582 50.1803 65.1052 50.2217 65.2947 50.2217C65.6209 50.2217 66.0912 50.0338 66.723 49.6609C67.3475 49.2895 68.2042 48.6916 69.2754 47.8644C69.5752 47.6395 69.8999 47.3687 70.2556 47.0505C70.6097 46.7339 70.8419 46.5726 70.9653 46.5726C71.0255 46.5726 71.074 46.5815 71.1181 46.6051C71.1622 46.6288 71.1798 46.6554 71.1798 46.6791C71.1798 46.7709 71.0931 46.8996 70.9227 47.0698C70.7449 47.2444 70.3525 47.5655 69.7457 48.039C68.67 48.8944 67.7516 49.5366 66.9905 49.9746C66.2308 50.4112 65.6562 50.6272 65.258 50.6272C64.7422 50.6272 64.3264 50.4526 64.0148 50.1078C63.696 49.763 63.5373 49.3117 63.5373 48.7553C63.5373 48.6546 63.549 48.5437 63.574 48.4194C63.5975 48.2906 63.6343 48.1397 63.6769 47.9591C62.6968 48.8145 61.7916 49.4715 60.9569 49.9317C60.1296 50.3949 59.4331 50.6257 58.8689 50.6257C58.2576 50.6257 57.7668 50.4689 57.3994 50.1522C57.0262 49.84 56.8425 49.4167 56.8425 48.8885C56.8425 48.1619 57.7477 46.7827 59.5551 44.7554L59.8255 44.4565C59.1642 44.9448 58.478 45.4953 57.755 46.1168C57.0394 46.7368 56.6177 47.0446 56.4825 47.0446C56.4399 47.0446 56.3958 47.0402 56.3605 47.0269C56.3238 47.0136 56.3047 46.9899 56.3047 46.9632C56.3047 46.8582 56.697 46.4705 57.4744 45.8001C58.2517 45.1327 59.4155 44.1872 60.9716 42.9634L63.6108 42.8568L59.968 47.1275L59.7358 47.4072C58.6955 48.6532 58.1738 49.4256 58.1738 49.7245C58.1738 49.8577 58.2282 49.9717 58.3443 50.0738C58.4545 50.1699 58.5956 50.2203 58.7675 50.2203C59.7476 50.2203 61.026 49.581 62.6056 48.3039C64.1794 47.021 65.8766 45.2422 67.6826 42.9634L70.1556 42.8568L65.7414 48.0938ZM48.3021 39.622C49.2205 38.4678 50.1389 37.426 51.0573 36.5056C51.9698 35.5851 52.925 34.7491 53.9168 33.9959C52.5885 32.8653 51.0941 32.0055 49.4336 31.4225C47.7687 30.838 45.9922 30.5494 44.1069 30.5494C41.5838 30.5494 39.5075 31.0274 37.8794 31.9789C36.2571 32.9304 35.4431 34.1157 35.4431 35.5467C35.4431 36.8193 36.288 37.867 37.9734 38.6809C39.6574 39.4992 41.8557 39.9091 44.555 39.9091C45.0576 39.9091 45.6101 39.8854 46.2155 39.8395C46.8136 39.7966 47.513 39.7226 48.3021 39.622ZM51.3894 39.0982C54.5913 38.2206 57.1878 37.1493 59.1789 35.89C61.1627 34.6262 62.1531 33.4676 62.1531 32.4066C62.1531 32.0485 62.0311 31.7821 61.793 31.603C61.5535 31.424 61.1994 31.3322 60.7218 31.3322C60.0356 31.3322 59.1848 31.6075 58.1621 32.155C57.1408 32.7025 56.1107 33.4469 55.0821 34.3895C55.5288 34.8408 55.8594 35.2078 56.0799 35.4934C56.3003 35.7834 56.412 35.9803 56.412 36.1001C56.412 36.1549 56.4046 36.1919 56.387 36.22C56.3679 36.2481 56.337 36.2614 56.3003 36.2614C56.196 36.2614 55.9814 36.0735 55.6567 35.7006C55.3319 35.3291 55.0322 35.0154 54.7632 34.7535C54.077 35.4608 53.4584 36.1741 52.9015 36.8859C52.3504 37.5991 51.842 38.3346 51.3894 39.0982ZM47.4454 40.8488C46.7724 40.9331 46.1171 40.9923 45.4676 41.0337C44.824 41.0752 44.1686 41.0944 43.5132 41.0944C40.88 41.0944 38.7434 40.6209 37.1035 39.6738C35.4563 38.7267 34.6349 37.5089 34.6349 36.0187C34.6349 34.3273 35.5283 32.9393 37.3166 31.8413C39.1049 30.7477 41.4002 30.2002 44.2112 30.2002C46.1273 30.2002 47.9392 30.4947 49.654 31.0866C51.3688 31.68 52.925 32.5531 54.3077 33.6984C55.808 32.7292 57.0761 32.0203 58.1224 31.566C59.1701 31.1103 60.0694 30.8868 60.8247 30.8868C61.3757 30.8868 61.8224 31.0156 62.1707 31.2671C62.519 31.5246 62.6909 31.8472 62.6909 32.2334C62.6909 33.4735 61.6079 34.8216 59.4331 36.2777C57.2642 37.7397 54.3445 39.0493 50.6885 40.2036C49.4218 42.111 48.1302 43.7107 46.818 45.0158C45.5146 46.3166 44.0819 47.4249 42.5258 48.3454C43.8424 48.7168 45.1105 49.0068 46.3345 49.2051C47.5659 49.4034 48.668 49.4996 49.6481 49.4996C50.7252 49.4996 51.7494 49.3191 52.7222 48.961C53.695 48.6028 54.7427 48.0095 55.8506 47.1867C56.0093 47.0757 56.2004 46.9337 56.4267 46.7546C56.8014 46.4557 57.0644 46.3092 57.2172 46.3092C57.2422 46.3092 57.2598 46.3121 57.2716 46.3269C57.2848 46.3403 57.2907 46.3639 57.2907 46.3906C57.2907 46.4882 57.1555 46.6673 56.8881 46.9292C56.6177 47.1867 56.2635 47.4679 55.8212 47.7609C54.4561 48.7035 53.1572 49.4167 51.9214 49.9036C50.6782 50.3875 49.5335 50.6302 48.4858 50.6302C47.7202 50.6302 46.7651 50.5192 45.6336 50.2987C44.4948 50.0782 42.9445 49.6964 40.9858 49.1504C39.8043 49.6565 38.7199 50.019 37.7398 50.2439C36.7611 50.4689 35.781 50.5798 34.8141 50.5798C33.521 50.5798 32.4865 50.4141 31.7092 50.0886C30.9319 49.7615 30.5469 49.325 30.5469 48.7878C30.5469 48.2684 30.8775 47.86 31.5329 47.5552C32.1927 47.2562 33.0993 47.1053 34.2572 47.1053C35.0845 47.1053 35.997 47.1749 36.9874 47.308C37.9808 47.4412 39.4061 47.7076 41.2753 48.1027C41.9424 47.7446 42.6962 47.0831 43.5338 46.1227C44.3714 45.1564 45.6762 43.3999 47.4454 40.8488ZM39.9998 48.8663C38.3276 48.406 37.0668 48.1027 36.2219 47.9562C35.3828 47.8097 34.604 47.7357 33.9016 47.7357C33.0861 47.7357 32.4571 47.8319 31.9972 48.0302C31.5432 48.2285 31.3169 48.4993 31.3169 48.8396C31.3169 49.2258 31.6534 49.5558 32.3337 49.8237C33.0067 50.0945 33.8443 50.2277 34.8494 50.2277C35.7369 50.2277 36.6186 50.1122 37.4959 49.8784C38.3761 49.6431 39.2107 49.3028 39.9998 48.8663Z" fill="#60516D"/>
</svg>
