<svg width="123" height="71" viewBox="0 0 123 71" fill="none" xmlns="http://www.w3.org/2000/svg">
<path d="M106.089 14.5463V0.798828H117.838C118.935 0.798828 119.732 1.00701 120.22 1.42937C120.713 1.84573 120.957 2.5212 120.957 3.45727V6.68933C120.957 7.61791 120.713 8.29338 120.22 8.71573C119.732 9.13809 118.936 9.35076 117.838 9.35076H116.046L122.399 14.5463H117.808L112.267 9.35076H109.236V14.5463H106.089ZM116.422 3.1712H109.233V7.00834H116.422C116.976 7.00834 117.353 6.92746 117.558 6.76871C117.764 6.60546 117.865 6.3194 117.865 5.91202V4.25554C117.865 3.85566 117.764 3.57708 117.558 3.41233C117.355 3.25058 116.977 3.1712 116.422 3.1712ZM85.5987 11.9628H96.1501V3.25208H85.5987V11.9628ZM82.4026 4.04587C82.4026 2.79827 82.6377 1.94607 83.105 1.48777C83.5723 1.02947 84.4724 0.800325 85.8099 0.800325H95.9299C97.2719 0.800325 98.178 1.02947 98.6438 1.48777C99.1141 1.94607 99.3507 2.79827 99.3507 4.04587V11.2978C99.3507 12.5544 99.1155 13.4111 98.6438 13.8649C98.178 14.3217 97.2719 14.5478 95.9299 14.5478H85.8099C84.4724 14.5478 83.5723 14.3217 83.105 13.8649C82.6377 13.4111 82.4026 12.5544 82.4026 11.2978V4.04587ZM69.1913 14.5463L61.2414 0.798828H64.8959L70.4643 10.7361L75.7707 0.798828H78.9594L71.4019 14.5463H69.1913ZM45.1994 0.800325V11.9628H54.3115V0.800325H57.5091V11.3023C57.5091 12.5544 57.274 13.4111 56.8022 13.8649C56.3349 14.3217 55.4303 14.5478 54.0884 14.5478H45.4061C44.0792 14.5478 43.182 14.3217 42.7102 13.8649C42.237 13.4111 42.0003 12.5544 42.0003 11.3023V0.800325H45.1994ZM20.637 14.5463V0.798828H32.388C33.4828 0.798828 34.2796 1.00701 34.7679 1.42937C35.2606 1.84573 35.5048 2.5212 35.5048 3.45727V6.68933C35.5048 7.61791 35.2606 8.29338 34.7679 8.71573C34.2796 9.13809 33.4843 9.35076 32.388 9.35076H30.5938L36.9486 14.5463H32.3566L26.815 9.35076H23.7837V14.5463H20.637ZM30.9712 3.1712H23.7822V7.00834H30.9712C31.5268 7.00834 31.9043 6.92746 32.108 6.76871C32.3131 6.60546 32.415 6.3194 32.415 5.91202V4.25554C32.415 3.85566 32.3131 3.57708 32.108 3.41233C31.9043 3.25058 31.5268 3.1712 30.9712 3.1712ZM10.3807 3.25058V14.5463H7.18303V3.25058H0.867188V0.798828H16.7205V3.25058H10.3807Z" fill="black"/>
<path d="M102.909 47.4546H103.463V52.2667H106.266V52.8194H103.463V65.9273H102.909V52.8194H100.107V52.2667H102.909V47.4546ZM91.4788 51.9537C92.7324 51.9537 93.8931 52.2577 94.9625 52.8658C96.0333 53.4739 96.887 54.2871 97.5265 55.3085L97.194 55.8612C96.6279 54.8413 95.8386 54.0265 94.8247 53.4184C93.8107 52.8104 92.6949 52.5063 91.4788 52.5063C90.2986 52.5063 89.2053 52.7969 88.1973 53.3825C87.1893 53.9666 86.3941 54.7619 85.8099 55.7699C85.2258 56.7778 84.9353 57.8741 84.9353 59.0603C84.9353 60.2465 85.2258 61.3398 85.8099 62.3418C86.3941 63.3423 87.1893 64.1361 88.1973 64.7202C89.2068 65.3043 90.2986 65.5963 91.4788 65.5963C92.6964 65.5963 93.8152 65.2893 94.8337 64.6737C95.8551 64.0597 96.6474 63.2419 97.212 62.222L97.5265 62.7746C96.899 63.8066 96.0483 64.6273 94.9729 65.2369C93.8961 65.845 92.7324 66.149 91.4788 66.149C90.1997 66.149 89.0135 65.8315 87.9202 65.1979C86.8284 64.5659 85.9627 63.7062 85.3307 62.6174C84.6986 61.5286 84.3811 60.3424 84.3811 59.0588C84.3811 57.7753 84.6986 56.5861 85.3307 55.4913C85.9642 54.3979 86.8284 53.5338 87.9202 52.9017C89.0151 52.2697 90.2012 51.9537 91.4788 51.9537ZM74.6834 52.5063C73.0479 52.5063 71.6191 53.041 70.397 54.1089C69.1749 55.1798 68.4455 56.5067 68.2118 58.0913H81.173C81.0757 57.4907 80.9019 56.9111 80.6563 56.3585C80.1396 55.2037 79.3443 54.2721 78.269 53.5667C77.1936 52.8598 75.9984 52.5063 74.6834 52.5063ZM74.6834 51.9537C76.1467 51.9537 77.4722 52.3611 78.6644 53.1788C79.858 53.9966 80.7237 55.0554 81.2644 56.3585C81.522 56.986 81.6808 57.6375 81.7422 58.313C81.7676 58.4732 81.7586 58.5691 81.7152 58.599C81.6718 58.6305 81.5519 58.644 81.3558 58.644C81.2943 58.644 81.2509 58.644 81.227 58.644H68.1534C68.1414 58.7803 68.1354 58.915 68.1354 59.0498C68.1354 59.589 68.2028 60.1252 68.3391 60.6524C68.3391 60.6524 68.3391 60.6629 68.3391 60.6808C68.3391 60.7003 68.3391 60.7093 68.3391 60.7093C68.7196 62.1351 69.4969 63.3048 70.6711 64.2229C71.8453 65.1365 73.1827 65.5963 74.6819 65.5963C75.8861 65.5963 76.9929 65.2983 78.0009 64.7007C79.0088 64.1031 79.7951 63.3078 80.3598 62.3133L80.6743 62.8465C80.0333 63.868 79.1871 64.6722 78.1297 65.2623C77.0723 65.8524 75.9235 66.1475 74.6819 66.1475C73.0464 66.1475 71.5907 65.6428 70.3116 64.6348C69.0326 63.6268 68.1984 62.3493 67.8045 60.7992C67.8045 60.7872 67.8015 60.7737 67.7955 60.7632C67.788 60.7512 67.7865 60.7378 67.7865 60.7273C67.6502 60.1866 67.5828 59.628 67.5828 59.0498C67.5828 57.7708 67.8988 56.5846 68.5323 55.4913C69.1659 54.3979 70.0286 53.5338 71.1219 52.9017C72.2152 52.2697 73.4059 51.9537 74.6834 51.9537ZM64.2474 47.1056C64.2848 47.1056 64.3223 47.1056 64.3582 47.1056C64.5679 47.1056 64.7761 47.1236 64.9843 47.1595L64.8914 47.7122C64.1426 47.5774 63.4177 47.6582 62.7167 47.9518C62.0413 48.2349 61.4751 48.6962 61.0213 49.3357C60.6154 49.9003 60.3384 50.5833 60.1901 51.3816C60.1422 51.6137 60.1032 51.8608 60.0808 52.1184H63.545V52.6711H60.0613C60.0478 52.9167 60.0418 53.2552 60.0418 53.6865V65.9273H59.4892V53.6865C59.4892 53.2552 59.4952 52.9167 59.5086 52.6711H57.4822V52.1184H59.5281C59.5536 51.8249 59.5895 51.5463 59.6389 51.2887C59.8112 50.4035 60.1242 49.6412 60.5795 49.0032C61.0827 48.2888 61.7297 47.7676 62.5145 47.4351C63.0687 47.2029 63.6468 47.0921 64.2474 47.1056ZM54.4404 52.0271C54.4658 52.0271 54.4898 52.0271 54.5153 52.0271C54.6501 52.0271 54.7789 52.039 54.9017 52.063L54.8283 52.5977C53.9192 52.5003 53.0954 52.7205 52.3586 53.2612C51.6217 53.8019 51.1664 54.5268 50.9941 55.4359C50.9687 55.5841 50.9522 55.7309 50.9402 55.8792V65.9258H50.3861V55.8612V52.3221H50.9402V54.0175C51.2218 53.5398 51.5842 53.1399 52.0276 52.8194C52.7375 52.2922 53.5432 52.0271 54.4404 52.0271ZM40.6494 52.5063C39.0154 52.5063 37.5866 53.041 36.3645 54.1089C35.1424 55.1798 34.413 56.5067 34.1793 58.0913H47.1405C47.0417 57.4907 46.8694 56.9111 46.6238 56.3585C46.1071 55.2037 45.3118 54.2721 44.235 53.5667C43.1596 52.8598 41.9659 52.5063 40.6494 52.5063ZM40.6494 51.9537C42.1142 51.9537 43.4397 52.3611 44.6319 53.1788C45.8255 53.9966 46.6912 55.0554 47.2304 56.3585C47.4895 56.986 47.6483 57.6375 47.7097 58.313C47.7351 58.4732 47.7261 58.5691 47.6812 58.599C47.6393 58.6305 47.5195 58.644 47.3233 58.644C47.2618 58.644 47.2184 58.644 47.1929 58.644H34.1209C34.1089 58.7803 34.103 58.915 34.103 59.0498C34.103 59.589 34.1703 60.1252 34.3051 60.6524C34.3051 60.6524 34.3051 60.6629 34.3051 60.6808C34.3051 60.7003 34.3051 60.7093 34.3051 60.7093C34.6871 62.1351 35.4644 63.3048 36.6386 64.2229C37.8113 65.1365 39.1487 65.5963 40.648 65.5963C41.8536 65.5963 42.9589 65.2983 43.9669 64.7007C44.9763 64.1046 45.7611 63.3078 46.3273 62.3133L46.6403 62.8465C46.0008 63.868 45.1531 64.6722 44.0972 65.2623C43.0398 65.8524 41.8896 66.1475 40.648 66.1475C39.0139 66.1475 37.5582 65.6428 36.2791 64.6348C35.0001 63.6268 34.1659 62.3493 33.772 60.7992C33.772 60.7872 33.769 60.7737 33.763 60.7632C33.757 60.7527 33.7525 60.7378 33.7525 60.7273C33.6177 60.1866 33.5503 59.628 33.5503 59.0498C33.5503 57.7708 33.8663 56.5846 34.4998 55.4913C35.1334 54.3979 35.9961 53.5338 37.0894 52.9017C38.1827 52.2697 39.3719 51.9537 40.6494 51.9537ZM23.8541 65.6338C24.0758 65.6338 24.29 65.6203 24.4996 65.5978C25.903 65.4615 27.1311 64.9089 28.1885 63.9384C29.2324 62.9798 29.9079 61.8056 30.2164 60.4172C30.4006 59.5306 30.4036 58.626 30.2254 57.6974C30.0472 56.7703 29.6997 55.9376 29.1845 55.1992C28.6558 54.4504 27.9893 53.8348 27.185 53.357C26.3793 52.8778 25.5286 52.5947 24.6314 52.5093C23.3164 52.3865 22.0868 52.6501 20.9441 53.3016C19.8987 54.0145 19.0689 54.9311 18.4549 56.0484C17.8408 57.1672 17.5398 58.304 17.5502 59.4587V59.4782C17.5757 60.6569 17.9097 61.7457 18.5552 62.7417C19.2007 63.7362 20.0589 64.4925 21.1283 65.0092C21.9865 65.4241 22.8956 65.6338 23.8541 65.6338ZM17.5487 70.7215H16.9961V52.2113H17.5487V56.655C18.1883 55.0809 19.2202 53.8108 20.646 52.8388H20.6655C21.9056 52.1139 23.246 51.8174 24.6853 51.9537C25.6678 52.051 26.5949 52.3596 27.4681 52.8748C28.3398 53.3915 29.0647 54.055 29.6428 54.8652C30.1954 55.677 30.5713 56.5831 30.7675 57.5851C30.9652 58.587 30.9578 59.5665 30.7496 60.5251C30.4171 62.0378 29.6862 63.3078 28.5554 64.3413C27.4112 65.3986 26.0782 66.0007 24.5535 66.149C24.3199 66.173 24.0863 66.1849 23.8526 66.1849C22.8087 66.1849 21.8187 65.9588 20.8857 65.5035C19.7174 64.9493 18.7844 64.1256 18.0834 63.0323C17.8857 62.7252 17.709 62.3807 17.5487 62.0018V70.7215Z" fill="black"/>
<path d="M80.3451 30.1365C79.9572 30.0841 79.5603 30.0452 79.15 30.0197C78.7441 29.9927 78.3202 29.9823 77.8799 29.9823C77.5399 29.9823 77.176 29.9942 76.7866 30.0137C76.3972 30.0377 76.177 30.0482 76.1261 30.0482C76.0123 30.0482 75.9344 30.0362 75.8909 30.0152C75.8475 29.9942 75.8251 29.9523 75.8251 29.8984C75.8251 29.813 76.0572 29.6168 76.5185 29.3068C76.9244 29.0312 77.2584 28.7961 77.5235 28.5984C78.2244 28.0742 78.7111 27.6219 78.9852 27.2414C79.2578 26.8625 79.3926 26.4626 79.3926 26.0463C79.3926 25.6659 79.2848 25.3753 79.0706 25.1701C78.8564 24.9634 78.5539 24.8616 78.1645 24.8616C77.8724 24.8616 77.6028 24.9185 77.3542 25.0293C77.1071 25.1446 76.86 25.3244 76.6099 25.573C76.541 25.6434 76.4601 25.7362 76.3657 25.8516C76.2729 25.9654 76.207 26.0238 76.1725 26.0238C76.1441 26.0238 76.1276 26.0148 76.1141 25.9968C76.1006 25.9774 76.0931 25.9534 76.0931 25.922C76.0931 25.8755 76.1156 25.8126 76.1605 25.7288C76.2025 25.6464 76.2669 25.552 76.3507 25.4472C76.6518 25.0668 76.9828 24.7792 77.3437 24.589C77.7047 24.3988 78.0926 24.3059 78.506 24.3059C79.0346 24.3059 79.4465 24.4452 79.7431 24.7238C80.0396 25.0024 80.1864 25.3903 80.1864 25.8845C80.1864 26.4297 79.9572 26.9524 79.4945 27.4511C79.0332 27.9499 77.9683 28.7107 76.3013 29.7381C77.3557 29.7112 78.2199 29.6617 78.8939 29.5824C79.5663 29.503 80.0486 29.3966 80.3451 29.2618C80.3691 29.16 80.3961 29.0252 80.4335 28.8545C80.5399 28.3393 80.6207 28.0802 80.6746 28.0802C80.6956 28.0802 80.7091 28.0906 80.7226 28.1116C80.7361 28.1326 80.7435 28.1595 80.7435 28.191C80.7435 28.2329 80.7196 28.4321 80.6731 28.7916C80.6252 29.148 80.6013 29.482 80.6013 29.7876C80.6013 30.0437 80.6087 30.2983 80.6222 30.5544C80.6222 30.6023 80.6222 30.6323 80.6222 30.6413C80.6222 30.6937 80.6177 30.7281 80.6102 30.7461C80.6013 30.7656 80.5818 30.773 80.5533 30.773C80.5099 30.773 80.471 30.7281 80.444 30.6367C80.411 30.5484 80.3811 30.3821 80.3451 30.1365ZM74.4906 28.1715C74.2974 28.5085 74.0458 28.7661 73.7358 28.9503C73.4272 29.133 73.0872 29.2244 72.7158 29.2244C72.1212 29.2244 71.6315 29.0117 71.251 28.5864C70.8676 28.1625 70.6774 27.6129 70.6774 26.9389C70.6774 26.1856 70.9051 25.558 71.3634 25.0518C71.8217 24.5471 72.3908 24.2954 73.0693 24.2954C73.7867 24.2954 74.3483 24.5486 74.7572 25.0533C75.1631 25.561 75.3682 26.2619 75.3682 27.1561C75.3682 27.9229 75.1885 28.6673 74.8306 29.3862C74.4726 30.1066 73.9454 30.782 73.249 31.4096C72.9854 31.6492 72.7458 31.8469 72.5316 32.0012C72.3159 32.1569 72.1811 32.2348 72.1227 32.2348C72.0958 32.2348 72.0763 32.2273 72.0613 32.2123C72.0463 32.1974 72.0403 32.1779 72.0403 32.1509C72.0403 32.1105 72.1347 32.0087 72.3189 31.8514C72.4582 31.7331 72.5705 31.6312 72.6574 31.5459C73.1846 31.0516 73.5965 30.5304 73.893 29.9823C74.1881 29.4356 74.3873 28.8305 74.4906 28.1715ZM73.0408 24.5231C72.5795 24.5231 72.2021 24.7298 71.9175 25.1402C71.63 25.552 71.4847 26.1002 71.4847 26.7786C71.4847 27.4331 71.618 27.9409 71.8831 28.3078C72.1482 28.6748 72.5151 28.856 72.9839 28.856C73.4751 28.856 73.8586 28.6688 74.1341 28.2958C74.4097 27.9214 74.546 27.3957 74.546 26.7217C74.546 26.0657 74.4052 25.5341 74.1266 25.1297C73.8466 24.7253 73.4841 24.5231 73.0408 24.5231ZM69.009 28.1715C68.8158 28.5085 68.5641 28.7661 68.2541 28.9503C67.9456 29.133 67.6056 29.2244 67.2342 29.2244C66.6396 29.2244 66.1498 29.0117 65.7694 28.5864C65.386 28.1625 65.1958 27.6129 65.1958 26.9389C65.1958 26.1856 65.4234 25.558 65.8817 25.0518C66.34 24.5471 66.9092 24.2954 67.5876 24.2954C68.305 24.2954 68.8667 24.5486 69.2756 25.0533C69.6814 25.561 69.8851 26.2619 69.8851 27.1561C69.8851 27.9229 69.7069 28.6673 69.3475 29.3862C68.991 30.1066 68.4638 30.782 67.7674 31.4096C67.5038 31.6492 67.2641 31.8469 67.05 32.0012C66.8343 32.1569 66.6995 32.2348 66.6411 32.2348C66.6141 32.2348 66.5962 32.2273 66.5797 32.2123C66.5647 32.1974 66.5587 32.1779 66.5587 32.1509C66.5587 32.1105 66.6516 32.0087 66.8358 31.8514C66.9751 31.7331 67.0874 31.6312 67.1743 31.5459C67.7015 31.0516 68.1133 30.5304 68.4084 29.9823C68.7064 29.4356 68.9056 28.8305 69.009 28.1715ZM67.5577 24.5231C67.0964 24.5231 66.719 24.7298 66.4344 25.1402C66.1468 25.552 66.0016 26.1002 66.0016 26.7786C66.0016 27.4331 66.1349 27.9409 66.4 28.3078C66.6651 28.6748 67.0335 28.856 67.5008 28.856C67.992 28.856 68.3754 28.6688 68.651 28.2958C68.9266 27.9214 69.0629 27.3957 69.0629 26.7217C69.0629 26.0657 68.9221 25.5341 68.6435 25.1297C68.365 24.7253 68.0025 24.5231 67.5577 24.5231ZM62.4849 24.9709L61.3167 25.0608H61.1654C61.11 25.0608 61.0711 25.0533 61.0486 25.0383C61.0262 25.0233 61.0157 24.9979 61.0157 24.9589C61.0157 24.9035 61.1714 24.8511 61.4845 24.8017C61.799 24.7507 62.0356 24.7073 62.1989 24.6624C62.3891 24.619 62.6062 24.5456 62.8519 24.4452C63.096 24.3449 63.2233 24.2939 63.2323 24.2939C63.2533 24.2939 63.2682 24.3059 63.2862 24.3299C63.3027 24.3554 63.3117 24.3823 63.3117 24.4138C63.3117 24.4422 63.2952 24.601 63.2667 24.8975C63.2368 25.1926 63.2233 25.4741 63.2233 25.7407V27.8495C63.2233 28.3153 63.2293 28.6942 63.2413 28.9878C63.2533 29.2813 63.2712 29.5404 63.2922 29.7681C63.7475 29.792 64.0725 29.8205 64.2717 29.8594C64.4724 29.8999 64.5742 29.9538 64.5742 30.0197C64.5742 30.0541 64.5623 30.0796 64.5383 30.0946C64.5143 30.1096 64.4724 30.1155 64.4185 30.1155C64.3975 30.1155 64.3406 30.1126 64.2552 30.1066C63.7879 30.0616 63.3237 30.0377 62.8564 30.0377C62.3412 30.0377 61.8439 30.0616 61.3587 30.1066C61.2763 30.1126 61.2254 30.1155 61.2074 30.1155C61.1505 30.1155 61.1115 30.1096 61.0846 30.0946C61.0591 30.0796 61.0471 30.0556 61.0471 30.0197C61.0471 29.9523 61.1475 29.8999 61.3512 29.8624C61.5549 29.828 61.9113 29.795 62.419 29.7681C62.4415 29.5255 62.4595 29.2559 62.4715 28.9623C62.4834 28.6673 62.4879 28.2973 62.4879 27.851V24.9709H62.4849ZM56.6588 30.1874C56.5106 30.1874 56.3848 30.1365 56.2814 30.0347C56.1811 29.9328 56.1286 29.807 56.1286 29.6587C56.1286 29.5225 56.1811 29.4026 56.2889 29.2993C56.3952 29.196 56.5166 29.1435 56.6573 29.1435C56.7996 29.1435 56.9224 29.193 57.0213 29.2948C57.1201 29.3937 57.1726 29.5165 57.1726 29.6587C57.1726 29.81 57.1246 29.9373 57.0258 30.0362C56.9314 30.138 56.8071 30.1874 56.6588 30.1874ZM53.3609 26.1346C53.3399 26.4057 53.3264 26.6573 53.3159 26.888C53.3055 27.1186 53.301 27.3343 53.301 27.535V28.3812C53.301 28.6538 53.3055 28.9054 53.3174 29.1345C53.3294 29.3637 53.3474 29.5764 53.3714 29.7711C53.6335 29.7995 53.8177 29.831 53.9285 29.8654C54.0393 29.8999 54.0963 29.9418 54.0963 29.9942C54.0963 30.0257 54.0828 30.0482 54.0603 30.0601C54.0334 30.0736 53.9929 30.0796 53.936 30.0796C53.8551 30.0796 53.7098 30.0721 53.4972 30.0556C53.2845 30.0392 53.1123 30.0317 52.979 30.0317C52.8262 30.0317 52.639 30.0392 52.4143 30.0556C52.1897 30.0721 52.0414 30.0796 51.965 30.0796C51.9111 30.0796 51.8722 30.0736 51.8512 30.0601C51.8302 30.0482 51.8197 30.0257 51.8197 29.9942C51.8197 29.9418 51.8751 29.8999 51.986 29.8654C52.0983 29.8325 52.284 29.7995 52.5446 29.7711C52.5656 29.5809 52.5821 29.3667 52.5955 29.1345C52.6075 28.9024 52.6135 28.6508 52.6135 28.3812V27.535C52.6135 27.2984 52.6075 27.0662 52.5926 26.8341C52.5791 26.6034 52.5596 26.3683 52.5341 26.1346H52.3634C52.0878 26.1346 51.8482 26.1451 51.643 26.1691C51.4348 26.193 51.2551 26.232 51.1053 26.2844C51.0918 26.4731 51.0724 26.6169 51.0454 26.7128C51.02 26.8101 50.99 26.858 50.9586 26.858C50.9316 26.858 50.9151 26.849 50.9031 26.8266C50.8912 26.8041 50.8852 26.7652 50.8852 26.7068C50.8852 26.6588 50.8882 26.5795 50.8941 26.4716C50.9016 26.3623 50.9046 26.2739 50.9046 26.2095C50.9046 26.0762 50.8956 25.9444 50.8807 25.8096C50.8642 25.6748 50.8552 25.6074 50.8552 25.6074C50.8552 25.573 50.8612 25.543 50.8762 25.5251C50.8882 25.5041 50.9046 25.4951 50.9226 25.4951C50.9586 25.4951 50.9855 25.5146 51.0065 25.5505C51.0259 25.5865 51.0469 25.6673 51.0739 25.7887C51.5052 25.8246 51.8737 25.8516 52.1852 25.868C52.4967 25.8845 52.7783 25.892 53.0344 25.892C53.2411 25.892 53.4972 25.8845 53.8012 25.868C54.1037 25.8516 54.4437 25.8261 54.8196 25.7887C54.8481 25.6703 54.8706 25.5925 54.89 25.552C54.9125 25.5161 54.938 25.4951 54.9709 25.4951C54.9889 25.4951 55.0024 25.5041 55.0129 25.5221C55.0233 25.54 55.0293 25.5685 55.0293 25.6074C55.0293 25.6074 55.0218 25.6748 55.0084 25.8096C54.9949 25.9444 54.9904 26.0762 54.9904 26.2095C54.9904 26.2739 54.9934 26.3623 54.9979 26.4716C55.0054 26.5795 55.0084 26.6588 55.0084 26.7068C55.0084 26.7607 55.0024 26.7981 54.9904 26.8221C54.9769 26.846 54.9574 26.8565 54.9305 26.8565C54.8975 26.8565 54.8661 26.8101 54.8406 26.7142C54.8152 26.6184 54.7972 26.4746 54.7792 26.2829C54.6279 26.2305 54.4497 26.1901 54.2475 26.1676C54.0423 26.1421 53.8027 26.1331 53.5286 26.1331H53.3609V26.1346ZM49.8443 26.4731C49.6735 26.3518 49.4923 26.2619 49.3006 26.202C49.1089 26.1421 48.9037 26.1122 48.685 26.1122C48.369 26.1122 48.1084 26.1841 47.9077 26.3278C47.707 26.4731 47.6082 26.6558 47.6082 26.879C47.6082 27.0662 47.6801 27.2055 47.8223 27.2984C47.9646 27.3912 48.2881 27.4751 48.7899 27.553C49.4159 27.6488 49.8218 27.7761 50.009 27.9364C50.1962 28.0936 50.2906 28.3408 50.2906 28.6718C50.2906 29.1091 50.1318 29.467 49.8143 29.7471C49.4968 30.0272 49.0849 30.1665 48.5817 30.1665C48.4199 30.1665 48.2462 30.1485 48.062 30.1155C47.8793 30.0826 47.6771 30.0317 47.4614 29.9673L47.4419 30.0062C47.3491 30.2054 47.2847 30.3043 47.2427 30.3043C47.2188 30.3043 47.2053 30.2983 47.1963 30.2893C47.1888 30.2788 47.1828 30.2578 47.1798 30.2249C47.1828 30.2114 47.1888 30.1829 47.1978 30.132C47.2592 29.8385 47.2907 29.5329 47.2907 29.2184C47.2907 29.1001 47.2862 28.9728 47.2772 28.838C47.2667 28.7032 47.2607 28.6268 47.2607 28.6118C47.2607 28.5729 47.2667 28.543 47.2772 28.525C47.2862 28.504 47.3011 28.4935 47.3206 28.4935C47.3745 28.4935 47.4195 28.5654 47.4569 28.7077C47.4928 28.8515 47.5228 29.0941 47.5498 29.4356C47.728 29.5569 47.9317 29.6513 48.1563 29.7172C48.381 29.7831 48.6131 29.816 48.8498 29.816C49.1748 29.816 49.4429 29.7411 49.654 29.5928C49.8682 29.4431 49.9746 29.2604 49.9746 29.0402C49.9746 28.7047 49.4713 28.4681 48.4649 28.3258L48.3825 28.3153C48.026 28.2644 47.7549 28.1416 47.5692 27.9469C47.3835 27.7522 47.2892 27.4931 47.2892 27.1711C47.2892 26.7487 47.4359 26.4072 47.725 26.1481C48.0156 25.889 48.399 25.7602 48.8767 25.7602C49.0325 25.7602 49.1987 25.7767 49.3755 25.8066C49.5507 25.8366 49.7379 25.8815 49.9326 25.9399C49.985 25.8186 50.0285 25.7332 50.0629 25.6838C50.0974 25.6359 50.1303 25.6119 50.1618 25.6119C50.1797 25.6119 50.1932 25.6149 50.1992 25.6209C50.2037 25.6284 50.2082 25.6419 50.2082 25.6584C50.2082 25.6748 50.1992 25.7183 50.1842 25.7917C50.1153 26.1152 50.0824 26.4387 50.0824 26.7607C50.0824 26.8161 50.0854 26.8745 50.0914 26.9359C50.0989 26.9973 50.1019 27.0318 50.1019 27.0422C50.1019 27.0722 50.0959 27.0947 50.0824 27.1126C50.0704 27.1321 50.0509 27.1396 50.0315 27.1396C49.9865 27.1396 49.9461 27.0827 49.9146 26.9674C49.8847 26.855 49.8607 26.6903 49.8443 26.4731ZM44.0002 26.1526C43.9792 26.3263 43.9657 26.5195 43.9553 26.7307C43.9463 26.9404 43.9418 27.1995 43.9418 27.5065V27.7926H44.3072C44.5798 27.7926 44.8329 27.7821 45.0695 27.7626C45.3047 27.7432 45.5159 27.7132 45.7001 27.6698C45.7226 27.517 45.7495 27.3987 45.784 27.3148C45.8154 27.228 45.8484 27.186 45.8798 27.186C45.9038 27.186 45.9188 27.195 45.9307 27.216C45.9427 27.2355 45.9487 27.2654 45.9487 27.3073C45.9487 27.3283 45.9367 27.4212 45.9143 27.5919C45.8903 27.7596 45.8813 27.9214 45.8813 28.0697C45.8813 28.1655 45.8888 28.2719 45.9068 28.3842C45.9232 28.4995 45.9322 28.5639 45.9322 28.5804C45.9322 28.6178 45.9247 28.6493 45.9113 28.6673C45.8978 28.6882 45.8798 28.6972 45.8544 28.6972C45.8229 28.6972 45.7914 28.6463 45.76 28.5415C45.7255 28.4381 45.6971 28.3018 45.6731 28.1326C45.4829 28.0951 45.2717 28.0652 45.0426 28.0427C44.8119 28.0203 44.5693 28.0113 44.3102 28.0113H43.9448V28.3527C43.9448 28.6268 43.9508 28.8829 43.9627 29.1226C43.9777 29.3592 43.9942 29.5824 44.0152 29.7846C44.1065 29.7891 44.2024 29.795 44.3027 29.7965C44.4046 29.7995 44.5528 29.801 44.7475 29.801C44.9542 29.801 45.1564 29.7831 45.3541 29.7471C45.5503 29.7112 45.745 29.6572 45.9322 29.5869C45.9712 29.3337 45.9996 29.1765 46.0206 29.1121C46.0401 29.0492 46.0625 29.0177 46.094 29.0177C46.1165 29.0177 46.1344 29.0282 46.1494 29.0477C46.1644 29.0657 46.1719 29.0941 46.1719 29.1286C46.1719 29.178 46.1659 29.2723 46.1569 29.4086C46.1464 29.5449 46.1404 29.6558 46.1404 29.7486C46.1404 29.8954 46.1539 30.0407 46.1794 30.1904C46.1868 30.2234 46.1898 30.2429 46.1898 30.2533C46.1898 30.2833 46.1838 30.3058 46.1689 30.3252C46.1524 30.3432 46.1344 30.3522 46.1105 30.3522C46.0925 30.3522 46.073 30.3387 46.055 30.3132C46.0371 30.2878 46.0131 30.2294 45.9787 30.1425C45.5368 30.1111 45.1175 30.0871 44.7206 30.0691C44.3222 30.0526 43.9777 30.0437 43.6842 30.0437C43.4955 30.0437 43.2903 30.0511 43.0671 30.0646C42.8454 30.0781 42.7151 30.0841 42.6792 30.0841C42.6208 30.0841 42.5804 30.0781 42.5579 30.0646C42.5339 30.0526 42.5234 30.0302 42.5234 29.9987C42.5234 29.9508 42.5744 29.9074 42.6717 29.8774C42.7706 29.846 42.9413 29.8115 43.1809 29.7771C43.2049 29.5824 43.2214 29.3712 43.2334 29.1405C43.2453 28.9099 43.2498 28.6598 43.2498 28.3872V27.544C43.2498 27.2819 43.2453 27.0363 43.2334 26.8116C43.2214 26.5854 43.2019 26.3683 43.1749 26.1601C42.9398 26.1286 42.7706 26.0942 42.6717 26.0597C42.5759 26.0268 42.5234 25.9864 42.5234 25.9399C42.5234 25.9055 42.5354 25.88 42.5579 25.865C42.5804 25.8486 42.6178 25.8426 42.6687 25.8426C42.6867 25.8426 42.7271 25.8456 42.796 25.8531C43.0941 25.8845 43.3846 25.901 43.6677 25.901H44.2428C44.4091 25.901 44.6397 25.8935 44.9318 25.874C45.2223 25.8561 45.5593 25.8306 45.9427 25.7976C45.9697 25.6763 45.9891 25.5955 46.0101 25.5595C46.0296 25.5236 46.055 25.5041 46.094 25.5041C46.1135 25.5041 46.1269 25.5131 46.1404 25.534C46.1539 25.552 46.1614 25.5805 46.1614 25.6164C46.1614 25.6164 46.1524 25.6838 46.1359 25.8186C46.1194 25.9534 46.1105 26.0852 46.1105 26.2185C46.1105 26.2829 46.1135 26.3713 46.1194 26.4806C46.1269 26.5884 46.1299 26.6678 46.1299 26.7157C46.1299 26.7697 46.1239 26.8071 46.1105 26.8311C46.097 26.855 46.079 26.8655 46.052 26.8655C46.0161 26.8655 45.9861 26.8191 45.9622 26.7232C45.9367 26.6289 45.9188 26.4836 45.9008 26.2919C45.7046 26.232 45.5009 26.1915 45.2957 26.1616C45.0875 26.1331 44.8599 26.1211 44.6112 26.1211C44.5109 26.1211 44.4091 26.1242 44.3087 26.1316C44.2039 26.1301 44.102 26.1406 44.0002 26.1526Z" fill="black"/>
</svg>
