<svg width="149" height="66" viewBox="0 0 149 66" fill="none" xmlns="http://www.w3.org/2000/svg">
<path d="M131.406 45.4679V29.7354H144C145.172 29.7354 146.015 29.9739 146.529 30.4571C147.043 30.9402 147.301 31.7175 147.301 32.7888V36.3C147.301 37.3623 147.045 38.1351 146.529 38.6167C146.014 39.0984 145.172 39.3385 144 39.3385H141.706L148.84 45.4664H144.964L138.606 39.3385H134.008V45.4664H131.406V45.4679ZM142.983 31.7775H134.01V37.2963H142.983C143.634 37.2963 144.076 37.1793 144.316 36.9407C144.552 36.7021 144.668 36.285 144.668 35.6908V33.3995C144.668 32.8053 144.547 32.3882 144.304 32.1451C144.061 31.8991 143.622 31.7775 142.983 31.7775ZM102.126 33.4446C102.126 32.0221 102.379 31.0453 102.889 30.5231C103.399 30.0009 104.367 29.7354 105.796 29.7354H116.595C118.008 29.7354 118.968 29.9949 119.473 30.5126C119.982 31.0363 120.234 32.0116 120.234 33.4446V41.7377C120.234 43.1917 119.982 44.1775 119.473 44.6907C118.968 45.2084 118.009 45.4679 116.595 45.4679H105.796C104.367 45.4679 103.399 45.2039 102.889 44.6757C102.379 44.152 102.126 43.1722 102.126 41.7377V33.4446ZM104.731 43.2727H117.659V31.869H104.731V43.2727ZM84.4903 45.4679L75.9607 29.7354H78.7726L85.6764 42.8451L92.2658 29.7354H94.8557L86.6808 45.4679H84.4903ZM53.6757 29.7354V43.2727H65.0619V29.7354H67.6353V41.7377C67.6353 43.1917 67.3835 44.1775 66.8739 44.6907C66.3643 45.2084 65.4061 45.4679 63.9964 45.4679H54.7263C53.3121 45.4679 52.348 45.2039 51.8384 44.6802C51.3288 44.152 51.071 43.1707 51.071 41.7377V29.7354H53.6757ZM24.7552 45.4679V29.7354H37.3513C38.5225 29.7354 39.366 29.9739 39.8801 30.4571C40.3942 30.9402 40.652 31.7175 40.652 32.7888V36.3C40.652 37.3623 40.3956 38.1351 39.8801 38.6167C39.3645 39.0984 38.5225 39.3385 37.3513 39.3385H35.055L42.1913 45.4664H38.3154L31.957 39.3385H27.3584V45.4664H24.7552V45.4679ZM36.332 31.7775H27.3599V37.2963H36.332C36.9832 37.2963 37.4258 37.1793 37.6657 36.9407C37.9012 36.7021 38.0174 36.285 38.0174 35.6908V33.3995C38.0174 32.8053 37.8967 32.3882 37.6538 32.1451C37.4124 31.8991 36.9728 31.7775 36.332 31.7775ZM9.94918 31.869V45.4679H7.34591V31.869H0.199219V29.7354H17.1272V31.869H9.94918Z" fill="#032638"/>
<path d="M100.357 62.8784C99.8221 62.8049 99.2737 62.7524 98.7105 62.7149C98.1472 62.6789 97.563 62.6609 96.9551 62.6609C96.4872 62.6609 95.9835 62.6774 95.4441 62.7074C94.9076 62.7389 94.6036 62.7554 94.5321 62.7554C94.3742 62.7554 94.2669 62.7389 94.2073 62.7089C94.1462 62.6774 94.1149 62.6204 94.1149 62.5453C94.1149 62.4283 94.4352 62.1537 95.0745 61.7246C95.6333 61.3419 96.0967 61.0148 96.4603 60.7417C97.4289 60.0125 98.1025 59.3838 98.478 58.8541C98.852 58.326 99.0413 57.7708 99.0413 57.1916C99.0413 56.6634 98.8908 56.2598 98.5957 55.9732C98.3022 55.6881 97.8819 55.5456 97.344 55.5456C96.9402 55.5456 96.5676 55.6236 96.2264 55.7796C95.8852 55.9387 95.5424 56.1893 95.1967 56.5344C95.1028 56.6334 94.9911 56.7625 94.8614 56.9215C94.7318 57.0806 94.6409 57.1601 94.5932 57.1601C94.556 57.1601 94.5306 57.1496 94.5112 57.1241C94.4934 57.0986 94.4844 57.0641 94.4844 57.0205C94.4844 56.956 94.5142 56.8675 94.5753 56.7535C94.6364 56.6379 94.7243 56.5059 94.8391 56.3603C95.2548 55.8307 95.7138 55.4315 96.2115 55.1674C96.7092 54.9019 97.2442 54.7713 97.8164 54.7713C98.545 54.7713 99.1143 54.9649 99.5241 55.3535C99.9338 55.7436 100.138 56.2823 100.138 56.968C100.138 57.7273 99.8191 58.452 99.1813 59.1452C98.5451 59.8385 97.0758 60.8978 94.7735 62.3278C96.2294 62.2902 97.4215 62.2197 98.3528 62.1087C99.2812 61.9992 99.9473 61.8521 100.356 61.6615C100.387 61.522 100.427 61.3344 100.478 61.0959C100.624 60.3801 100.736 60.0215 100.81 60.0215C100.84 60.0215 100.859 60.035 100.877 60.065C100.896 60.095 100.907 60.1311 100.907 60.1761C100.907 60.2361 100.876 60.5122 100.812 61.0118C100.744 61.5085 100.713 61.9707 100.713 62.3968C100.713 62.7509 100.722 63.1065 100.74 63.4606C100.74 63.5297 100.74 63.5687 100.74 63.5822C100.74 63.6542 100.734 63.7022 100.725 63.7277C100.713 63.7532 100.686 63.7637 100.646 63.7637C100.585 63.7637 100.533 63.7007 100.493 63.5747C100.451 63.4516 100.406 63.2191 100.357 62.8784ZM92.2775 60.1476C92.0093 60.6157 91.6606 60.9743 91.2344 61.2294C90.8083 61.483 90.3404 61.609 89.8263 61.609C89.0052 61.609 88.3317 61.3149 87.8056 60.7222C87.2781 60.131 87.0144 59.3688 87.0144 58.4325C87.0144 57.3852 87.3318 56.5134 87.9621 55.8097C88.5954 55.1074 89.3792 54.7578 90.318 54.7578C91.3075 54.7578 92.0853 55.1104 92.6471 55.8127C93.2104 56.5164 93.4905 57.4917 93.4905 58.7371C93.4905 59.8024 93.2431 60.8363 92.7484 61.8386C92.2537 62.8409 91.5265 63.7772 90.5654 64.649C90.2033 64.9836 89.871 65.2567 89.5729 65.4713C89.2764 65.6873 89.0901 65.7954 89.0082 65.7954C88.9739 65.7954 88.9456 65.7864 88.9232 65.7654C88.9024 65.7444 88.8934 65.7174 88.8934 65.6798C88.8934 65.6213 89.0216 65.4818 89.2749 65.2627C89.4671 65.0977 89.6236 64.9536 89.7413 64.8366C90.467 64.1509 91.0377 63.4261 91.4475 62.6639C91.8588 61.9046 92.133 61.0644 92.2775 60.1476ZM90.2748 55.0759C89.637 55.0759 89.1184 55.361 88.7221 55.9342C88.3242 56.5074 88.126 57.2666 88.126 58.2119C88.126 59.1212 88.3093 59.828 88.6759 60.3366C89.0395 60.8453 89.5491 61.0974 90.1958 61.0974C90.8753 61.0974 91.4043 60.8378 91.7813 60.3201C92.1613 59.7994 92.352 59.0702 92.352 58.1309C92.352 57.2186 92.1598 56.4789 91.7724 55.9177C91.3864 55.3565 90.8872 55.0759 90.2748 55.0759ZM84.7076 60.1476C84.4409 60.6157 84.0937 60.9743 83.666 61.2294C83.2413 61.483 82.772 61.609 82.2579 61.609C81.4368 61.609 80.7618 61.3149 80.2372 60.7222C79.7097 60.131 79.4475 59.3688 79.4475 58.4325C79.4475 57.3852 79.7619 56.5134 80.3937 55.8097C81.0285 55.1074 81.8108 54.7578 82.7481 54.7578C83.7391 54.7578 84.5169 55.1104 85.0787 55.8127C85.6405 56.5164 85.9206 57.4917 85.9206 58.7371C85.9206 59.8024 85.6747 60.8363 85.1785 61.8386C84.6838 62.8394 83.9581 63.7772 82.997 64.649C82.6334 64.9836 82.3011 65.2567 82.0045 65.4713C81.708 65.6873 81.5202 65.7954 81.4398 65.7954C81.4025 65.7954 81.3757 65.7864 81.3548 65.7654C81.334 65.7444 81.325 65.7174 81.325 65.6798C81.325 65.6213 81.4517 65.4818 81.7065 65.2627C81.8987 65.0977 82.0522 64.9536 82.1729 64.8366C82.9001 64.1509 83.4693 63.4261 83.8791 62.6639C84.2904 61.9046 84.5646 61.0644 84.7076 60.1476ZM82.7049 55.0759C82.0671 55.0759 81.5486 55.361 81.1537 55.9342C80.7543 56.5074 80.5576 57.2666 80.5576 58.2119C80.5576 59.1212 80.7394 59.828 81.1045 60.3366C81.4711 60.8453 81.9777 61.0974 82.6259 61.0974C83.3039 61.0974 83.8314 60.8378 84.2114 60.3201C84.5899 59.7994 84.7807 59.0702 84.7807 58.1309C84.7807 57.2186 84.5884 56.4789 84.2025 55.9177C83.818 55.3565 83.3203 55.0759 82.7049 55.0759ZM75.6998 55.6986L74.0845 55.8232H73.8758C73.8013 55.8232 73.7462 55.8142 73.7179 55.7917C73.6866 55.7706 73.6687 55.7346 73.6687 55.6821C73.6687 55.6041 73.8863 55.5306 74.3199 55.463C74.7535 55.3925 75.0814 55.331 75.3049 55.271C75.5671 55.208 75.8667 55.1074 76.2049 54.9694C76.5417 54.8283 76.7175 54.7593 76.7309 54.7593C76.7593 54.7593 76.7816 54.7758 76.804 54.8103C76.8278 54.8448 76.8382 54.8839 76.8382 54.9289C76.8382 54.9649 76.8174 55.1884 76.7771 55.6011C76.7369 56.0107 76.716 56.4023 76.716 56.7745V59.7064C76.716 60.3531 76.725 60.8828 76.7399 61.2879C76.7578 61.6946 76.7801 62.0562 76.8114 62.3713C77.4388 62.4043 77.8903 62.4448 78.1644 62.4973C78.4431 62.5528 78.5817 62.6264 78.5817 62.7209C78.5817 62.7689 78.5638 62.8034 78.5295 62.8244C78.4968 62.8454 78.4416 62.8544 78.3671 62.8544C78.3358 62.8544 78.2598 62.8499 78.1406 62.8409C77.4954 62.7779 76.8546 62.7464 76.2109 62.7464C75.5001 62.7464 74.8116 62.7779 74.1411 62.8409C74.0293 62.8499 73.9578 62.8544 73.934 62.8544C73.855 62.8544 73.7998 62.8454 73.7641 62.8244C73.7313 62.8034 73.7104 62.7689 73.7104 62.7209C73.7104 62.6264 73.8505 62.5528 74.1321 62.5018C74.4123 62.4523 74.9055 62.4073 75.6044 62.3713C75.6357 62.0337 75.6595 61.6601 75.6774 61.2504C75.6938 60.8408 75.7013 60.3276 75.7013 59.7064V55.6986H75.6998ZM67.656 62.9505C67.4519 62.9505 67.2775 62.8784 67.1375 62.7374C66.9974 62.5948 66.9258 62.4193 66.9258 62.2152C66.9258 62.0262 66.9989 61.8581 67.1464 61.7156C67.2939 61.5715 67.4623 61.4995 67.6545 61.4995C67.8512 61.4995 68.0211 61.5685 68.1582 61.7096C68.2983 61.8476 68.3653 62.0172 68.3653 62.2152C68.3653 62.4253 68.2998 62.6024 68.1641 62.7404C68.033 62.8799 67.8617 62.9505 67.656 62.9505ZM63.1036 57.3146C63.0738 57.6913 63.0545 58.0409 63.0411 58.362C63.0276 58.6846 63.0202 58.9832 63.0202 59.2623V60.4402C63.0202 60.8168 63.0276 61.1664 63.0425 61.4875C63.0604 61.8041 63.0828 62.1027 63.1156 62.3713C63.4777 62.4103 63.734 62.4538 63.8875 62.5018C64.0424 62.5483 64.1184 62.6084 64.1184 62.6804C64.1184 62.7239 64.102 62.7569 64.0678 62.7719C64.035 62.7914 63.9769 62.8004 63.8964 62.8004C63.7876 62.8004 63.585 62.7884 63.2914 62.7659C62.9993 62.7449 62.7624 62.7344 62.5776 62.7344C62.3675 62.7344 62.1097 62.7449 61.7983 62.7659C61.4868 62.7884 61.2812 62.8004 61.1784 62.8004C61.1024 62.8004 61.0502 62.7914 61.0219 62.7719C60.9921 62.7569 60.9787 62.7239 60.9787 62.6804C60.9787 62.6084 61.0577 62.5483 61.2082 62.5018C61.3647 62.4538 61.621 62.4103 61.9801 62.3713C62.0114 62.1072 62.0322 61.8086 62.0516 61.4875C62.068 61.1634 62.0769 60.8123 62.0769 60.4402V59.2623C62.0769 58.9337 62.068 58.6081 62.0471 58.2885C62.0278 57.9658 62.0009 57.6417 61.9667 57.3161H61.7282C61.3483 57.3161 61.016 57.3311 60.7313 57.3657C60.4467 57.3972 60.1964 57.4512 59.9878 57.5247C59.9684 57.7873 59.9431 57.9869 59.9058 58.1204C59.8715 58.2554 59.8298 58.323 59.7881 58.323C59.7508 58.323 59.724 58.308 59.7091 58.2795C59.6912 58.2479 59.6853 58.1939 59.6853 58.1129C59.6853 58.0469 59.6897 57.9358 59.6972 57.7843C59.7061 57.6312 59.7121 57.5097 59.7121 57.4212C59.7121 57.2366 59.7002 57.0521 59.6808 56.866C59.657 56.6799 59.6465 56.5854 59.6465 56.5854C59.6465 56.5374 59.6555 56.4969 59.6734 56.4714C59.6927 56.4444 59.7136 56.4309 59.7404 56.4309C59.7911 56.4309 59.8283 56.4564 59.8537 56.5089C59.8835 56.5599 59.9118 56.6709 59.9475 56.8405C60.5421 56.8915 61.0517 56.9275 61.4824 56.9485C61.9101 56.971 62.3005 56.983 62.6551 56.983C62.9397 56.983 63.2929 56.971 63.7116 56.9485C64.1304 56.9275 64.5997 56.89 65.1183 56.8405C65.1541 56.6739 65.1869 56.5659 65.2137 56.5119C65.245 56.4579 65.2792 56.4309 65.3254 56.4309C65.3493 56.4309 65.3657 56.4414 65.3836 56.4669C65.3985 56.4924 65.4059 56.5299 65.4059 56.5839C65.4059 56.5839 65.397 56.6784 65.3776 56.8645C65.3597 57.0521 65.3523 57.2366 65.3523 57.4197C65.3523 57.5097 65.3567 57.6312 65.3627 57.7828C65.3731 57.9358 65.3776 58.0454 65.3776 58.1114C65.3776 58.1849 65.3687 58.2359 65.3523 58.2705C65.3329 58.305 65.3076 58.3215 65.2688 58.3215C65.2226 58.3215 65.1794 58.2539 65.1466 58.1234C65.1123 57.9899 65.084 57.7888 65.0602 57.5232C64.8516 57.4497 64.6057 57.3972 64.3256 57.3642C64.0439 57.3296 63.7116 57.3146 63.3331 57.3146H63.1036ZM58.2488 57.7858C58.0133 57.6177 57.763 57.4932 57.4978 57.4107C57.2325 57.3281 56.9494 57.2861 56.6484 57.2861C56.2118 57.2861 55.8512 57.3852 55.5755 57.5847C55.2968 57.7858 55.1612 58.0409 55.1612 58.3515C55.1612 58.6111 55.2596 58.8061 55.4563 58.9337C55.653 59.0627 56.0985 59.1812 56.7929 59.2893C57.6572 59.4213 58.2175 59.5999 58.4753 59.8205C58.7346 60.041 58.8657 60.3831 58.8657 60.8453C58.8657 61.453 58.6452 61.9511 58.2071 62.3398C57.769 62.7284 57.1982 62.922 56.5023 62.922C56.2788 62.922 56.0419 62.8994 55.7886 62.8514C55.5338 62.8049 55.2581 62.7374 54.9571 62.6474L54.9302 62.7029C54.8036 62.9805 54.7127 63.117 54.6546 63.117C54.6233 63.117 54.6024 63.1095 54.5905 63.096C54.5786 63.0825 54.5711 63.0555 54.5681 63.009C54.5711 62.9895 54.5786 62.949 54.592 62.8799C54.6784 62.4703 54.7216 62.0472 54.7216 61.609C54.7216 61.4425 54.7142 61.2654 54.6993 61.0794C54.6859 60.8918 54.6784 60.7868 54.6784 60.7643C54.6784 60.7117 54.6859 60.6697 54.6993 60.6442C54.7142 60.6157 54.7336 60.6022 54.7619 60.6022C54.8379 60.6022 54.9004 60.7012 54.9496 60.8993C54.9988 61.0959 55.0405 61.435 55.0778 61.9106C55.3236 62.0787 55.6038 62.2092 55.9137 62.3008C56.2252 62.3923 56.5456 62.4388 56.8734 62.4388C57.3219 62.4388 57.693 62.3353 57.9835 62.1282C58.2801 61.9211 58.4261 61.6646 58.4261 61.3585C58.4261 60.8933 57.7302 60.5647 56.3429 60.3666L56.2296 60.3516C55.7379 60.2811 55.3624 60.11 55.1061 59.8385C54.8498 59.5684 54.7231 59.2098 54.7231 58.7611C54.7231 58.1744 54.9243 57.6988 55.3236 57.3401C55.723 56.9815 56.255 56.8015 56.9121 56.8015C57.1267 56.8015 57.3547 56.8225 57.5991 56.866C57.8435 56.908 58.0998 56.9695 58.368 57.0506C58.4425 56.8825 58.5036 56.7655 58.5483 56.6964C58.5975 56.6304 58.6422 56.5944 58.6869 56.5944C58.7122 56.5944 58.7301 56.6004 58.739 56.6079C58.7465 56.6169 58.751 56.6364 58.751 56.6619C58.751 56.6844 58.739 56.7445 58.7197 56.8465C58.6258 57.2951 58.5781 57.7468 58.5781 58.1954C58.5781 58.272 58.5811 58.3545 58.5915 58.44C58.6005 58.5255 58.6049 58.572 58.6049 58.5871C58.6049 58.6276 58.596 58.6606 58.5781 58.6861C58.5617 58.7116 58.5379 58.7221 58.5051 58.7221C58.444 58.7221 58.3889 58.6411 58.3456 58.4805C58.3024 58.317 58.2711 58.0859 58.2488 57.7858ZM50.1812 57.3416C50.1499 57.5832 50.132 57.8518 50.1171 58.1459C50.1052 58.4355 50.0977 58.7971 50.0977 59.2233V59.6224H50.6029C50.9784 59.6224 51.3271 59.6089 51.6549 59.5804C51.9798 59.5549 52.2704 59.5113 52.5267 59.4543C52.5565 59.2428 52.5952 59.0777 52.6399 58.9592C52.6831 58.8391 52.7308 58.7791 52.774 58.7791C52.8053 58.7791 52.8277 58.7926 52.8441 58.8211C52.8605 58.8466 52.8709 58.8901 52.8709 58.9472C52.8709 58.9742 52.853 59.1062 52.8217 59.3433C52.7904 59.5789 52.7755 59.8024 52.7755 60.008C52.7755 60.1416 52.7874 60.2901 52.8083 60.4462C52.8306 60.6052 52.8411 60.6952 52.8411 60.7177C52.8411 60.7718 52.8321 60.8123 52.8143 60.8378C52.7949 60.8663 52.771 60.8783 52.7338 60.8783C52.6921 60.8783 52.6474 60.8078 52.6027 60.6622C52.555 60.5167 52.5162 60.3276 52.4849 60.0935C52.2197 60.0395 51.9321 59.999 51.6117 59.969C51.2943 59.939 50.959 59.9255 50.6014 59.9255H50.0962V60.3966C50.0962 60.7793 50.1067 61.1364 50.1216 61.4665C50.141 61.7966 50.1633 62.1042 50.1931 62.3878C50.3198 62.3938 50.4524 62.4013 50.591 62.4028C50.734 62.4073 50.9367 62.4103 51.2064 62.4103C51.4925 62.4103 51.7726 62.3848 52.0439 62.3338C52.3165 62.2843 52.5833 62.2092 52.8411 62.1102C52.8962 61.7591 52.935 61.54 52.9633 61.45C52.9901 61.3614 53.0214 61.3194 53.0631 61.3194C53.0944 61.3194 53.1197 61.3329 53.1406 61.36C53.1615 61.3855 53.1704 61.4245 53.1704 61.4725C53.1704 61.5415 53.1644 61.6706 53.1495 61.8611C53.1361 62.0487 53.1287 62.2062 53.1287 62.3323C53.1287 62.5348 53.1495 62.7389 53.1838 62.9475C53.1928 62.994 53.1987 63.021 53.1987 63.036C53.1987 63.0765 53.1898 63.1095 53.1674 63.135C53.148 63.1605 53.1197 63.171 53.0869 63.171C53.0616 63.171 53.0348 63.153 53.011 63.1155C52.9856 63.081 52.9528 63 52.9066 62.8784C52.2957 62.8349 51.716 62.8004 51.1691 62.7779C50.6208 62.7554 50.1424 62.7434 49.7371 62.7434C49.4778 62.7434 49.1932 62.7524 48.8848 62.7719C48.5793 62.7914 48.399 62.8004 48.3498 62.8004C48.2708 62.8004 48.2127 62.7914 48.1844 62.7719C48.1531 62.7569 48.1367 62.7239 48.1367 62.6804C48.1367 62.6144 48.2053 62.5558 48.3409 62.5123C48.478 62.4688 48.7119 62.4193 49.0427 62.3713C49.0755 62.1027 49.1008 61.8071 49.1172 61.4875C49.1321 61.1679 49.1396 60.8168 49.1396 60.4402V59.2653C49.1396 58.9006 49.1321 58.56 49.1172 58.2479C49.1008 57.9328 49.074 57.6297 49.0353 57.3431C48.7089 57.2966 48.478 57.2501 48.3409 57.2021C48.2053 57.1556 48.1367 57.1016 48.1367 57.037C48.1367 56.986 48.1531 56.9515 48.1844 56.9305C48.2142 56.9095 48.2664 56.9005 48.3394 56.9005C48.3617 56.9005 48.4184 56.905 48.5137 56.914C48.925 56.9605 49.3258 56.983 49.7178 56.983H50.5105C50.74 56.983 51.0589 56.971 51.4627 56.9455C51.865 56.92 52.3285 56.884 52.8575 56.8405C52.8932 56.6709 52.9245 56.5584 52.9513 56.5089C52.9797 56.4564 53.0154 56.4309 53.0661 56.4309C53.0944 56.4309 53.1138 56.4444 53.1317 56.4714C53.1525 56.4969 53.1615 56.5359 53.1615 56.5854C53.1615 56.5854 53.1495 56.6799 53.1272 56.866C53.1033 57.0536 53.0929 57.2381 53.0929 57.4212C53.0929 57.5112 53.0974 57.6327 53.1078 57.7843C53.1168 57.9373 53.1212 58.0469 53.1212 58.1129C53.1212 58.1864 53.1123 58.2374 53.0929 58.272C53.075 58.3065 53.0497 58.323 53.0124 58.323C52.9618 58.323 52.9201 58.2554 52.8888 58.1249C52.856 57.9944 52.8277 57.7903 52.8038 57.5247C52.5311 57.4422 52.254 57.3837 51.9679 57.3446C51.6818 57.3056 51.3658 57.2861 51.0216 57.2861C50.8816 57.2861 50.7415 57.2906 50.6044 57.2996C50.4613 57.3086 50.3213 57.3236 50.1812 57.3416Z" fill="#EF7D00"/>
<path fill-rule="evenodd" clip-rule="evenodd" d="M69.9487 2.15699C69.7132 2.20351 69.6313 2.11198 69.7043 1.88241C69.9278 1.61532 70.2407 1.51028 70.6401 1.5658C71.2898 0.652005 72.1243 0.491455 73.1495 1.08415C73.8066 0.893584 74.133 0.991115 74.1285 1.37824C74.0927 1.70685 73.9631 1.91091 73.7396 1.98894C74.3386 2.4976 74.5428 3.1008 74.3535 3.79703C74.0436 4.97941 74.1404 5.41154 74.6769 5.60661C75.5203 5.84968 76.699 5.73565 78.0878 5.15796C79.2397 4.76483 80.1725 5.09344 80.6613 5.37403C82.1976 5.42655 81.9741 3.58245 80.7432 3.18032C79.189 2.67316 77.0358 4.76034 76.3637 3.95308C75.866 3.19083 77.7615 1.46677 78.5408 1.03313C79.0832 0.733032 79.3902 0.697021 80.2783 0.793052C81.1545 0.646004 81.4913 1.28971 82.2885 1.43976C81.4764 1.35723 81.6462 1.41275 81.2186 1.30622C81.9085 1.51778 81.9934 1.82689 82.2542 1.84339C81.5211 1.84939 80.6568 1.75937 80.4601 1.50579C80.3215 1.20119 80.3021 1.23419 80.022 1.09615C79.867 1.06914 79.3753 0.913089 78.8671 1.20118C77.7406 1.83739 76.5008 3.27036 76.7452 3.61997C77.0834 4.10462 78.6347 2.44359 80.703 2.63565C81.6716 2.83821 82.3138 3.29286 82.4152 4.3417C82.5299 5.53008 81.8057 5.95022 81.2201 6.2173C81.6984 7.03057 81.8862 7.97587 81.7789 9.05322C82.0501 9.56939 82.3123 9.76295 82.5701 9.63541C82.5269 10.042 82.6804 10.2806 83.0365 10.3496C83.1379 12.5523 82.5597 13.7497 81.2976 13.9403C81.3482 13.8083 81.2975 13.9403 81.1426 14.3349C80.8893 13.9193 80.8654 13.6447 81.074 13.5082C80.7849 13.6987 80.6419 13.8863 80.6449 14.0723C80.4467 13.8128 80.4884 13.5187 80.7641 13.1886C80.4705 13.2621 80.4035 13.3746 80.3334 13.5832C80.2485 12.959 80.633 12.6079 81.4868 12.5298C81.7386 11.7616 81.7267 11.2034 81.454 10.8583C81.0442 10.6917 80.855 10.5912 80.8848 10.5567C80.6508 10.7548 80.5018 10.8238 80.4377 10.7638C80.4139 10.5132 80.4035 10.3886 80.4035 10.3886C80.1382 10.5132 80.0071 10.5762 80.0071 10.5762C79.8 10.3001 79.6957 10.1621 79.6957 10.1621C79.4885 10.1741 79.3872 10.1816 79.3872 10.1816C79.2486 9.90549 79.1801 9.76895 79.1801 9.76895C78.8284 9.78846 78.666 9.77495 78.6973 9.73144C78.5676 10.5342 78.3605 10.9528 78.0774 10.9903C78.0431 11.2034 78.0252 11.3099 78.0252 11.3099C78.4588 11.319 78.6317 11.451 78.5438 11.7046C78.1012 12.2237 77.9298 12.6049 78.0252 12.8509C77.3949 12.8029 76.8197 13.04 76.3056 13.5667C76.0284 13.6972 75.7304 13.6912 75.4085 13.5472C74.966 13.5787 74.662 13.7107 74.4966 13.9433C74.4399 13.7437 74.4727 13.5682 74.5994 13.4166C74.3684 13.4887 74.2298 13.6207 74.1866 13.8113C74.1121 13.6012 74.1404 13.4076 74.273 13.2291C74.057 13.3701 73.9199 13.5142 73.8603 13.6612C73.9899 12.7789 74.5457 12.3843 75.5307 12.4773C76.3309 11.8246 76.7556 11.3805 76.8033 11.1434C76.1596 10.5447 75.8839 10.1741 75.9763 10.0345C74.0689 10.9438 72.7993 10.9303 72.172 9.99703C71.6668 10.8493 71.1855 11.3625 70.725 11.538C70.6788 11.7511 70.655 11.8576 70.655 11.8576C69.8324 12.1457 69.3973 12.4908 69.3467 12.8915C68.8117 12.8825 68.3512 13.0955 67.9683 13.5307C67.563 13.6672 67.3394 13.6552 67.2977 13.4932C67.0146 13.7287 66.9267 13.9553 67.0384 14.1699C66.8507 14.0213 66.7806 13.7152 66.8328 13.2486C66.6063 13.4046 66.4692 13.6192 66.42 13.8878C66.277 13.6057 66.3068 13.2936 66.505 12.9485C66.2278 13.0715 66.0624 13.2336 66.0058 13.4376C65.9402 12.6739 66.4334 12.3288 67.487 12.4038C67.7269 12.0887 68.083 11.8741 68.5539 11.7646C69.0978 10.4832 69.5001 9.68792 69.7609 9.37732C69.372 9.04572 69.1544 8.6886 69.1067 8.30598C68.773 8.393 68.6076 8.43802 68.6076 8.43802C68.539 7.98637 68.5047 7.7613 68.5047 7.7613C68.2529 7.86183 68.1247 7.91285 68.1247 7.91285C68.0577 7.4237 68.0234 7.17911 68.0234 7.17911C67.7582 7.21663 67.627 7.23613 67.627 7.23613C67.639 6.76048 67.6449 6.5219 67.6449 6.5219C67.3916 6.59693 67.2649 6.63444 67.2649 6.63444C67.2649 6.13328 67.2649 5.8827 67.2649 5.8827C66.8954 5.8977 66.7449 5.9037 66.8179 5.9022C67.0653 5.5871 67.1234 5.34102 66.9893 5.16996C66.4677 5.284 66.268 4.82035 66.3872 3.77902C66.2621 3.62297 66.1429 3.56595 66.0251 3.60946C66.1458 3.26585 66.3589 3.25385 66.6629 3.57195C66.6555 3.30787 66.5079 3.15182 66.2159 3.1023C66.344 2.90724 66.5094 2.90123 66.7136 3.08279C66.6555 2.88023 66.5616 2.72418 66.4394 2.61314C67.3007 2.96125 67.6151 3.58245 67.3856 4.47374C68.6806 6.00873 69.6104 6.5159 70.1737 5.99523C71.1169 4.75583 71.5863 4.13463 71.5863 4.13463C71.5416 3.94407 71.3747 3.88705 71.0871 3.96508C70.6043 4.13463 70.351 4.05811 70.3182 3.7265C70.5194 3.65448 70.3123 3.722 71.2406 3.45791C71.3017 2.99576 71.2108 2.64915 70.9664 2.68666C70.5686 2.74818 70.3301 2.92224 70.1901 2.94925C69.9397 2.78269 69.8593 2.51861 69.9487 2.15699Z" fill="#EF7D00"/>
</svg>
