<svg width="181" height="23" viewBox="0 0 181 23" fill="none" xmlns="http://www.w3.org/2000/svg">
<path d="M177.936 0.801299H180.054V22.0603H177.936V0.801299ZM173.995 4.72359L172.329 6.01102C171.414 4.80762 170.311 3.89532 169.021 3.27262C167.738 2.65141 166.325 2.33931 164.783 2.33931C163.101 2.33931 161.54 2.74895 160.105 3.56372C158.67 4.37698 157.562 5.47234 156.774 6.84529C155.985 8.21825 155.586 9.76675 155.586 11.4788C155.586 14.0762 156.47 16.2429 158.234 17.9745C159.998 19.7105 162.221 20.5793 164.913 20.5793C167.866 20.5793 170.338 19.4164 172.328 17.0862L173.994 18.3601C172.94 19.706 171.627 20.7534 170.052 21.4871C168.48 22.2239 166.72 22.593 164.782 22.593C161.086 22.593 158.168 21.3551 156.037 18.8763C154.249 16.7876 153.352 14.2622 153.352 11.3063C153.352 8.19724 154.436 5.57737 156.601 3.45567C158.772 1.32797 161.487 0.267125 164.75 0.267125C166.72 0.267125 168.501 0.657258 170.088 1.43602C171.679 2.22227 172.982 3.31763 173.995 4.72359ZM147.386 0.801299H149.502V22.0603H147.386V0.801299ZM125.959 22.0603V0.801299H126.414L140.457 17.0622V0.801299H142.573V22.0603H142.093L128.136 5.9435V22.0603H125.959ZM110.532 2.33931C108.971 2.33931 107.493 2.74894 106.091 3.56821C104.693 4.38749 103.601 5.48735 102.814 6.87531C102.029 8.26627 101.637 9.81177 101.637 11.5193C101.637 14.0402 102.504 16.1724 104.243 17.9099C105.984 19.652 108.082 20.5208 110.533 20.5208C112.175 20.5208 113.688 20.1202 115.081 19.3204C116.477 18.5207 117.565 17.4253 118.344 16.0388C119.124 14.6509 119.514 13.1114 119.514 11.4143C119.514 9.72624 119.124 8.20024 118.344 6.83929C117.565 5.47685 116.461 4.38599 115.045 3.56672C113.63 2.74745 112.123 2.33931 110.532 2.33931ZM110.438 0.267125C113.634 0.267125 116.307 1.34298 118.461 3.48869C120.611 5.6359 121.69 8.27977 121.69 11.4188C121.69 14.5338 120.615 17.1732 118.471 19.3384C116.318 21.5051 113.701 22.5915 110.609 22.5915C107.481 22.5915 104.842 21.5096 102.691 19.3549C100.539 17.1972 99.4614 14.5879 99.4614 11.5223C99.4614 9.48017 99.9502 7.58954 100.931 5.84296C101.91 4.10089 103.249 2.73394 104.944 1.74812C106.633 0.762293 108.468 0.267125 110.438 0.267125ZM80.5188 20.0482H82.9537C85.8654 20.0482 87.8801 19.8651 89.0066 19.499C90.5906 18.9768 91.8379 18.0435 92.7469 16.6915C93.6529 15.3351 94.1044 13.6815 94.1044 11.7264C94.1044 9.67823 93.6141 7.92265 92.6291 6.47017C91.6501 5.01469 90.2762 4.01837 88.5223 3.48119C87.2021 3.07455 85.0324 2.87349 82.0089 2.87349H80.5188V20.0482ZM78.4892 22.0603V0.801299H82.8702C86.0263 0.801299 88.3197 1.05789 89.7442 1.56656C91.7932 2.29129 93.3966 3.5397 94.5499 5.32679C95.6988 7.10938 96.2785 9.23108 96.2785 11.6979C96.2785 13.8301 95.821 15.6997 94.9061 17.3188C93.9941 18.9363 92.8035 20.1367 91.3476 20.9064C89.8873 21.6762 87.8383 22.0618 85.2068 22.0618H78.4892V22.0603ZM63.4105 0.801299H65.528V22.0603H63.4105V0.801299ZM49.0948 2.87349V0.801299H60.6508V2.87349H55.9464V22.0603H53.7992V2.87349H49.0948ZM34.3618 18.084L36.1545 16.9976C37.4211 19.3459 38.8799 20.5223 40.5369 20.5223C41.2477 20.5223 41.9138 20.3542 42.5352 20.0226C43.1581 19.6925 43.6334 19.2424 43.9568 18.6857C44.2861 18.1275 44.4456 17.5348 44.4456 16.9076C44.4456 16.1964 44.2072 15.5002 43.7273 14.8144C43.0657 13.8721 41.8602 12.7317 40.1003 11.4053C38.336 10.0624 37.2363 9.09603 36.8056 8.49883C36.0576 7.4965 35.6851 6.41015 35.6851 5.24576C35.6851 4.32446 35.9041 3.47968 36.3452 2.71893C36.7863 1.95968 37.4091 1.36249 38.2123 0.922841C39.017 0.483196 39.8843 0.265625 40.8245 0.265625C41.8244 0.265625 42.7602 0.513203 43.6275 1.01137C44.4962 1.50503 45.4171 2.41733 46.3872 3.74377L44.6646 5.06271C43.8644 4.00036 43.1834 3.29963 42.6202 2.96502C42.0569 2.6244 41.4429 2.45635 40.7828 2.45635C39.9245 2.45635 39.2241 2.71893 38.6802 3.2381C38.1378 3.76028 37.8607 4.39648 37.8607 5.16174C37.8607 5.62089 37.959 6.06954 38.1512 6.50468C38.342 6.93833 38.6936 7.40798 39.2048 7.92115C39.479 8.18824 40.3954 8.89648 41.9436 10.0429C43.7765 11.4038 45.0357 12.6132 45.7167 13.6696C46.3991 14.7304 46.7419 15.7972 46.7419 16.8686C46.7419 18.4066 46.1577 19.7496 44.9969 20.8839C43.8316 22.0258 42.416 22.593 40.7471 22.593C39.464 22.593 38.2958 22.2479 37.2527 21.5576C36.2111 20.8659 35.244 19.7075 34.3618 18.084ZM23.1694 5.26227L19.5365 13.0003H26.786L23.1694 5.26227ZM23.4332 0.801299L33.2844 22.0603H31.015L27.7158 15.0725H18.5664L15.2866 22.0603H12.9351L22.9027 0.801299H23.4332ZM0.53125 0.801299H11.1172V2.87349H2.64873V9.53568H11.1187V11.6079H2.64873V22.0603H0.53125V0.801299Z" fill="#A4453B"/>
</svg>
